<svg width="406" height="306" viewBox="0 0 406 306" fill="none" xmlns="http://www.w3.org/2000/svg">
<path d="M46.2129 199.152L175.605 275.47L369.44 161.445L239.337 86.416L46.2129 199.152Z" fill="#F88949"/>
<path opacity="0.32" d="M270.559 204.836L237.733 224.994L210.785 208.358L252.715 185.338" fill="url(#paint0_linear_135_1705)"/>
<path opacity="0.32" d="M136.213 187.601L84.6509 218.336L55.2463 200.949L101.388 172.265" fill="url(#paint1_linear_135_1705)"/>
<path opacity="0.32" d="M189.267 231.764L149.296 256.418L127.768 243.132L169.698 220.112" fill="url(#paint2_linear_135_1705)"/>
<path d="M228.842 55.8036L205.883 43.6845C205.345 43.2518 204.728 42.9277 204.066 42.7304C203.392 42.5295 202.685 42.4683 201.987 42.5503C201.289 42.6323 200.614 42.8559 200.006 43.2075L97.7547 101.519C96.9459 101.98 96.2742 102.648 95.8087 103.454C95.3431 104.26 95.1005 105.176 95.1055 106.107L95.6029 175.726C95.6031 176.442 95.7521 177.15 96.0404 177.805C96.3287 178.46 96.75 179.048 97.2776 179.532C97.9326 180.135 98.7283 180.564 99.5919 180.781L122.176 192.961C122.176 192.961 130.773 172.559 126.124 168.266C125.833 168.002 125.486 167.808 125.109 167.697L205.294 121.19C206.088 120.728 206.746 120.066 207.204 119.27C207.662 118.474 207.903 117.571 207.902 116.653V64.4311L208.613 68.4911L228.842 55.8036Z" fill="#2388D2"/>
<path opacity="0.22" d="M228.842 55.8036L205.883 43.6845C205.345 43.2518 204.728 42.9277 204.066 42.7304C203.392 42.5295 202.685 42.4683 201.987 42.5503C201.289 42.6323 200.614 42.8559 200.006 43.2075L97.7547 101.519C96.9459 101.98 96.2742 102.648 95.8087 103.454C95.3431 104.26 95.1005 105.176 95.1055 106.107L95.6029 175.726C95.6031 176.442 95.7521 177.15 96.0404 177.805C96.3287 178.46 96.75 179.048 97.2776 179.532C97.9326 180.135 98.7283 180.564 99.5919 180.781L122.176 192.961C122.176 192.961 130.773 172.559 126.124 168.266C125.833 168.002 125.486 167.808 125.109 167.697L205.294 121.19C206.088 120.728 206.746 120.066 207.204 119.27C207.662 118.474 207.903 117.571 207.902 116.653V64.4311L208.613 68.4911L228.842 55.8036Z" fill="#272322"/>
<path d="M121.13 114.207L223.117 55.4484C223.913 54.9927 224.813 54.7533 225.73 54.754C226.647 54.7547 227.547 54.9954 228.342 55.4523C229.136 55.9091 229.797 56.5661 230.259 57.3579C230.721 58.1497 230.967 59.0486 230.973 59.9651L231.268 128.863C231.272 129.781 231.035 130.685 230.581 131.482C230.127 132.28 229.471 132.945 228.68 133.41L127.18 192.879C126.387 193.343 125.487 193.591 124.568 193.597C123.65 193.604 122.746 193.37 121.947 192.917C121.147 192.465 120.481 191.812 120.013 191.021C119.546 190.231 119.294 189.332 119.283 188.413L118.491 118.805C118.483 117.873 118.724 116.956 119.187 116.148C119.651 115.34 120.322 114.67 121.13 114.207Z" fill="#2388D2"/>
<path opacity="0.37" d="M121.13 114.207L223.117 55.4484C223.913 54.9927 224.813 54.7533 225.73 54.754C226.647 54.7547 227.547 54.9954 228.342 55.4523C229.136 55.9091 229.797 56.5661 230.259 57.3579C230.721 58.1497 230.967 59.0486 230.973 59.9651L231.268 128.863C231.272 129.781 231.035 130.685 230.581 131.482C230.127 132.28 229.471 132.945 228.68 133.41L127.18 192.879C126.387 193.343 125.487 193.591 124.568 193.597C123.65 193.604 122.746 193.37 121.947 192.917C121.147 192.465 120.481 191.812 120.013 191.021C119.546 190.231 119.294 189.332 119.283 188.413L118.491 118.805C118.483 117.873 118.724 116.956 119.187 116.148C119.651 115.34 120.322 114.67 121.13 114.207Z" fill="white"/>
<path d="M139.694 92.4248C142.906 92.4248 145.51 91.2933 145.51 89.8974C145.51 88.5016 142.906 87.3701 139.694 87.3701C136.482 87.3701 133.878 88.5016 133.878 89.8974C133.878 91.2933 136.482 92.4248 139.694 92.4248Z" fill="#272322"/>
<path d="M179.767 72.9063C182.979 72.9063 185.583 71.7748 185.583 70.379C185.583 68.9832 182.979 67.8517 179.767 67.8517C176.555 67.8517 173.951 68.9832 173.951 70.379C173.951 71.7748 176.555 72.9063 179.767 72.9063Z" fill="#272322"/>
<path d="M173.981 68.958C173.954 69.6648 174.026 70.372 174.194 71.059C175.615 71.4143 177.239 70.3892 178.63 70.1963C180.498 69.9426 184.72 71.9827 185.583 70.379C185.583 67.9126 184.71 62.9594 182.731 61.244C178.671 57.7626 172.712 60.1478 168.713 62.259C166.115 63.609 163.537 65.0198 160.969 66.4205C157.816 68.1528 154.673 69.8986 151.54 71.6579C148.637 73.2819 145.876 75.0988 142.831 76.469C141.525 77.042 140.292 77.7677 139.157 78.631C137.417 79.9331 136.026 81.6447 135.107 83.6137C134.188 85.5827 133.77 87.7481 133.889 89.9178H145.521V84.6804C145.407 83.8321 145.537 82.9688 145.897 82.1921C146.256 81.4154 146.83 80.7574 147.551 80.2956C150.078 78.6107 171.606 67.1006 172.763 67.466C173.92 67.8314 173.819 67.6486 173.981 68.958Z" fill="#272322"/>
<path d="M166.622 183.003V188.383C166.417 189.363 165.926 190.26 165.212 190.961C164.115 191.885 159.67 193.793 159.751 198.178C159.822 202.116 159.67 228.851 159.67 228.851H191.835V198.178C191.835 198.178 190.82 193.59 187.613 191.377C186.863 190.975 186.178 190.462 185.583 189.855C184.649 188.657 185.126 187.216 185.268 185.175C185.282 184.274 185.245 183.373 185.156 182.476" fill="#603316"/>
<path d="M165.222 177.228V182.77H187.146V177.228" fill="#DBDBDB"/>
<path d="M176.184 187.591C182.238 187.591 187.146 185.433 187.146 182.77C187.146 180.107 182.238 177.949 176.184 177.949C170.13 177.949 165.222 180.107 165.222 182.77C165.222 185.433 170.13 187.591 176.184 187.591Z" fill="#DBDBDB"/>
<path d="M176.184 182.049C182.238 182.049 187.146 179.891 187.146 177.228C187.146 174.565 182.238 172.407 176.184 172.407C170.13 172.407 165.222 174.565 165.222 177.228C165.222 179.891 170.13 182.049 176.184 182.049Z" fill="#EDEDED"/>
<path d="M175.768 234.576C184.658 234.576 191.865 231.813 191.865 228.404C191.865 224.996 184.658 222.233 175.768 222.233C166.877 222.233 159.67 224.996 159.67 228.404C159.67 231.813 166.877 234.576 175.768 234.576Z" fill="#603316"/>
<path d="M191.835 199.487C191.419 199.568 178.853 204.105 167.059 201.06V222.233C167.059 222.233 180.792 227.227 191.835 220.406V199.487Z" fill="white"/>
<path d="M244.554 106.767C244.554 106.767 245.183 77.5753 246.442 74.2258C247.701 70.8764 250.177 60.0666 251.405 58.7775C252.634 57.4885 253.598 52.8094 257.81 53.9259C260.102 54.6238 262.333 55.5099 264.479 56.575L259.231 86.416L257.018 107.66L244.554 106.767Z" fill="#EEF3F7"/>
<path d="M239.225 93.2875C234.15 93.6732 224.883 78.8644 224.883 78.8644C230.04 76.134 230.273 70.1658 230.273 70.1658L242.971 81.8587" fill="#DBDBDB"/>
<path d="M224.894 78.905C224.894 78.905 222.488 78.3975 224.356 73.9112C226.223 69.4249 228.933 68.958 230.293 70.2064C231.653 71.4549 229.502 79.2095 224.894 78.905Z" fill="#9E9E9E"/>
<path d="M226.538 78.7629C228.382 77.6791 229.743 75.9332 230.344 73.8808C230.143 73.6326 229.97 73.3638 229.826 73.0789C229.918 72.3684 230.009 71.6681 230.07 70.9576C230.357 69.0247 230.886 67.1356 231.643 65.3345C232.13 63.9439 229.928 63.3045 229.441 64.7255C228.904 66.0919 228.446 67.4881 228.07 68.9073L227.309 60.7873C227.177 59.3358 224.894 59.3257 225.025 60.7873L225.563 66.522C225.269 64.492 225.015 62.3707 224.843 60.2899C224.721 58.8385 222.437 58.8283 222.559 60.2899C222.559 60.6655 222.63 61.041 222.671 61.4166C221.96 61.0613 220.945 61.3557 221.047 62.3504C221.108 62.9391 221.179 63.5379 221.25 64.1266C221.065 64.1102 220.88 64.1371 220.708 64.2051C220.536 64.2732 220.382 64.3805 220.259 64.5185C220.135 64.6566 220.046 64.8215 219.998 65.0002C219.95 65.1789 219.944 65.3663 219.981 65.5476C221.057 70.5516 222.995 75.2003 226.538 78.7629Z" fill="#F0B387"/>
<path d="M249.152 174.863C249.152 174.863 248.523 183.359 247.051 184.607C245.579 185.856 239.733 190.342 238.728 191.073C237.723 191.803 238.677 194.229 242.128 194.229C245.579 194.229 252.177 190.169 252.177 190.169L257.049 188.363C257.049 188.363 257.729 180.131 256.683 175.066C255.638 170.001 249.152 174.863 249.152 174.863Z" fill="#4A2B0F"/>
<path d="M265.626 188.596C265.626 188.596 262.195 205.161 264.448 206.44C266.701 207.719 271.797 204.968 272.568 202.126C273.34 199.284 273.055 182.425 272.568 182.323" fill="#4A2B0F"/>
<path d="M244.554 116.622L245.407 178.091C245.407 178.091 252.989 180.669 260.175 178.091L258.754 119.881L262.885 191.397C264.922 192.248 267.108 192.686 269.315 192.686C271.523 192.686 273.708 192.248 275.745 191.397L274.456 111.385L245.407 103.336L244.554 116.622Z" fill="#2388D2"/>
<path d="M255.161 53.8041C255.161 53.8041 247.183 51.5 243.285 60.635C237.997 72.9673 237.733 143.51 237.733 143.51C240.151 145.862 243.166 147.508 246.452 148.27C246.452 148.27 247.132 75.4642 247.711 70.8662C248.675 63.274 255.161 53.8041 255.161 53.8041Z" fill="#DBDBDB"/>
<path d="M249.071 54.3623C249.071 54.3623 244.574 59.7113 244.909 59.7113C245.244 59.7113 246.523 61.3252 246.523 61.3252L243.976 63.7815L247.234 98.2915C247.234 98.2915 244.869 73.2514 255.171 53.9055C255.181 53.8649 250.766 53.3371 249.071 54.3623Z" fill="#EEF3F7"/>
<path d="M262.824 55.8544C262.824 55.8544 270.812 58.6355 272.893 66.0044C275.035 73.5661 275.37 149.691 275.37 150.493C275.37 151.295 270.295 154.472 266.001 155.101C261.708 155.73 255.405 153.294 255.405 153.294L254.258 108.898C254.258 108.898 254.806 83.3812 255.405 78.5193C256.003 73.6575 262.824 55.8544 262.824 55.8544Z" fill="#DBDBDB"/>
<path d="M266.458 117.262C266.214 104.676 266.103 92.0898 266.123 79.5038C266.123 79.3289 266.053 79.1611 265.93 79.0373C265.806 78.9136 265.638 78.8441 265.463 78.8441C265.288 78.8441 265.12 78.9136 264.997 79.0373C264.873 79.1611 264.803 79.3289 264.803 79.5038C264.763 92.2049 264.878 104.906 265.148 117.607L266.458 117.262Z" fill="#9E9E9E"/>
<path d="M263.687 141.074C263.687 141.074 281.074 124.58 282.292 125.291C283.51 126.001 283.388 151.031 283.144 151.762C282.901 152.493 270.964 164.754 269.523 165.119C268.082 165.485 262.51 165.119 262.51 165.119L263.687 141.074Z" fill="#4A2B0F"/>
<path d="M268.975 138.445C268.975 138.445 266.945 127.361 272.863 125.25C278.78 123.139 277.237 131.726 277.237 131.726L279.318 129.269C279.318 129.269 278.831 120.753 272.548 123.017C266.265 125.28 265.331 133.583 266.367 139.764" fill="#4A2B0F"/>
<path d="M275.065 114.694C272.953 115.961 270.604 116.784 268.163 117.11C267.717 118.836 267.073 120.504 266.245 122.083C265.808 124.012 265.757 125.889 267.737 125.686C267.856 125.675 267.971 125.631 268.067 125.56C268.164 125.488 268.239 125.392 268.285 125.28C268.346 125.808 268.407 126.295 268.478 126.864C268.499 126.966 268.552 127.058 268.63 127.128C268.704 127.356 268.857 127.551 269.061 127.678C269.266 127.804 269.509 127.854 269.746 127.818C269.908 127.803 270.063 127.743 270.193 127.645C270.216 127.863 270.304 128.07 270.445 128.238C270.586 128.406 270.774 128.528 270.985 128.589C271.209 128.662 271.452 128.65 271.668 128.554C271.883 128.459 272.056 128.287 272.152 128.072C272.306 128.323 272.547 128.51 272.83 128.596C273.112 128.682 273.416 128.661 273.685 128.538C274.035 128.347 274.297 128.027 274.415 127.645C274.526 127.592 274.618 127.508 274.679 127.402C276.212 124.742 275.917 121.85 275.146 119.018C275.126 117.587 275.065 116.135 275.065 114.694Z" fill="#F0B387"/>
<path d="M262.824 55.56L266.001 57.4175L264.803 64.1165L260.906 64.6341L262.175 68.3693C262.175 68.3693 258.003 77.5754 257.282 79.1385C256.562 80.7016 254.572 95.9875 254.572 95.9875C254.572 95.9875 255.039 79.4328 255.587 77.3317C256.135 75.2307 259.008 61.8936 262.824 55.56Z" fill="#EEF3F7"/>
<path d="M248.476 70.7833C249.731 70.4002 250.402 68.9553 249.974 67.556C249.547 66.1567 248.184 65.3329 246.929 65.716C245.674 66.0991 245.004 67.544 245.431 68.9433C245.858 70.3426 247.222 71.1664 248.476 70.7833Z" fill="#9E9E9E"/>
<path d="M248.299 66.6134C248.076 66.4611 248.482 52.3323 256.643 53.1849C264.803 54.0375 264.133 60.0869 263.829 63.203L265.138 63.3857C265.138 63.3857 266.671 52.5861 256.247 52.5556C245.823 52.5252 247.518 67.4863 247.518 67.4863" fill="#9E9E9E"/>
<path d="M249.984 46.0292C249.232 45.6049 248.615 44.9768 248.204 44.2173C247.792 43.4578 247.604 42.5976 247.66 41.7357C247.66 38.4979 252.674 36.0618 254.765 35.7675C257.424 35.3919 266.295 36.4983 266.833 43.1161C267.219 47.7242 264.062 55.9051 261.758 55.966" fill="#4A2B0F"/>
<path d="M262.185 51.429C261.958 50.3998 261.677 49.3833 261.342 48.384C261.227 48.0389 261.105 47.7005 260.977 47.369C260.347 45.7348 259.383 46.222 257.932 46.222C256.792 46.2471 255.653 46.1312 254.542 45.8769C252.842 45.4359 251.215 44.7522 249.71 43.8469C249.487 47.3994 249.345 57.8235 255.12 58.7167C258.632 59.2648 260.55 57.8742 261.626 56.2096C261.819 54.545 262.002 53.0022 262.185 51.429Z" fill="#F0B387"/>
<path d="M260.916 51.0026C260.916 51.0026 262.317 47.4603 263.382 49.2162C264.56 51.1752 262.033 52.5454 262.033 52.5454" fill="#F0B387"/>
<path d="M251.587 52.4156C252.81 52.0424 253.44 50.5576 252.994 49.0993C252.549 47.641 251.197 46.7615 249.975 47.1347C248.752 47.508 248.122 48.9927 248.568 50.451C249.013 51.9093 250.365 52.7889 251.587 52.4156Z" stroke="#42210B" stroke-width="0.25375" stroke-miterlimit="10"/>
<path d="M257.827 53.927C259.049 53.5537 259.679 52.069 259.234 50.6107C258.788 49.1524 257.436 48.2728 256.214 48.6461C254.992 49.0193 254.362 50.5041 254.807 51.9623C255.252 53.4206 256.604 54.3002 257.827 53.927Z" stroke="#42210B" stroke-width="0.25375" stroke-miterlimit="10"/>
<path d="M259.231 50.6068L263.829 47.4907" stroke="#42210B" stroke-width="0.25375" stroke-miterlimit="10"/>
<path d="M253.263 50.485C253.263 50.485 254.369 50.485 254.674 50.8707" stroke="#42210B" stroke-width="0.25375" stroke-miterlimit="10"/>
<path d="M263.819 76.4487C265.077 76.4487 267.087 76.4487 268.163 75.7382C269.239 75.0277 269.066 74.0837 268.955 72.8353C268.701 69.9324 268.468 64.5529 265.138 63.3755C262.235 62.3605 259.789 64.4717 258.754 67.0092C258.084 68.6637 256.988 71.3636 257.404 73.221C257.729 74.6826 259.312 75.4642 260.591 76.0224C260.835 76.1239 261.038 75.7788 260.794 75.6672C259.302 75.0176 257.749 74.1447 257.81 72.3177C257.951 70.7282 258.328 69.1684 258.927 67.6893C259.942 64.9691 262.57 62.4417 265.524 64.0353C267.94 65.3345 268.214 69.9426 268.488 72.3177C268.67 73.8706 268.863 74.8755 267.138 75.6367C266.06 75.9612 264.933 76.0952 263.809 76.0326C263.545 76.0326 263.545 76.4487 263.809 76.4386L263.819 76.4487Z" fill="#4D4D4D"/>
<path d="M259.84 75.4438C259.84 75.6671 259.535 76.0325 259.84 76.1848C260.144 76.337 261.139 76.7735 261.23 76.4487C261.322 76.1239 261.474 75.6266 261.23 75.4337C260.987 75.2409 259.84 74.713 259.84 75.4438Z" fill="#4A2B0F"/>
<path d="M263.281 76.1544C263.281 76.3675 263.108 76.7938 263.443 76.875C263.778 76.9562 264.834 77.1694 264.854 76.875C264.874 76.5807 264.915 76.0224 264.641 75.86C264.367 75.6976 263.118 75.4337 263.281 76.1544Z" fill="#4A2B0F"/>
<path d="M222.701 68.8261C223.25 68.3712 223.922 68.0913 224.631 68.0226C225.341 67.9538 226.054 68.0994 226.68 68.4404C226.707 68.4564 226.736 68.4669 226.767 68.4715C226.798 68.4761 226.829 68.4746 226.859 68.467C226.889 68.4595 226.918 68.4461 226.943 68.4276C226.968 68.4091 226.989 68.3858 227.005 68.3592C227.021 68.3325 227.031 68.303 227.036 68.2722C227.04 68.2415 227.039 68.2101 227.031 68.1799C227.024 68.1498 227.01 68.1214 226.992 68.0964C226.973 68.0714 226.95 68.0504 226.924 68.0344C226.207 67.6452 225.391 67.4807 224.58 67.5622C223.769 67.6436 223.001 67.9673 222.376 68.4911C222.133 68.684 222.478 69.0088 222.711 68.8261H222.701Z" fill="#42210B"/>
<path d="M227.522 69.2828C226.721 69.6282 226.053 70.2224 225.616 70.9774C225.179 71.7325 224.997 72.6081 225.097 73.4747C225.097 73.7792 225.584 73.7792 225.574 73.4747C225.477 72.7179 225.621 71.9497 225.985 71.2793C226.35 70.6089 226.916 70.0702 227.604 69.7395C227.888 69.6279 227.766 69.1711 227.482 69.2828H227.522Z" fill="#42210B"/>
<path d="M224.914 61.4876L225.452 67.2731C225.452 67.5776 225.959 67.5776 225.929 67.2731L225.391 61.4876C225.391 61.1831 224.883 61.1831 224.914 61.4876Z" fill="#42210B"/>
<path d="M222.549 62.1778L223.32 66.9381C223.32 67.2426 223.828 67.1107 223.777 66.8163L223.006 62.056C223.006 61.7515 222.498 61.8835 222.549 62.1778Z" fill="#42210B"/>
<path d="M221.108 64.9082L221.991 67.334C222.092 67.6182 222.549 67.4964 222.447 67.2122L221.564 64.7864C221.463 64.5022 221.006 64.624 221.108 64.9082Z" fill="#42210B"/>
<path d="M274.192 113.933C271.568 115.462 268.685 116.494 265.686 116.978C264.854 117.11 265.209 118.378 266.031 118.246C269.141 117.74 272.13 116.667 274.852 115.08C275.004 114.992 275.115 114.848 275.161 114.678C275.206 114.509 275.183 114.328 275.095 114.176C275.008 114.024 274.864 113.913 274.694 113.867C274.525 113.822 274.344 113.845 274.192 113.933Z" fill="#9E9E9E"/>
<path d="M167.099 101.956V150.96L184.212 140.465V92.5162L167.099 101.956Z" fill="#F15A24"/>
<path d="M155.407 124.377V140.993L195.905 117.252V100.91L155.407 124.377Z" fill="#F15A24"/>
<defs>
<linearGradient id="paint0_linear_135_1705" x1="234.861" y1="212.621" x2="261.2" y2="185.358" gradientUnits="userSpaceOnUse">
<stop stop-opacity="0"/>
<stop offset="0.99" stop-color="#1A1A1A"/>
</linearGradient>
<linearGradient id="paint1_linear_135_1705" x1="6212.75" y1="9685.43" x2="8051.29" y2="6885.14" gradientUnits="userSpaceOnUse">
<stop stop-opacity="0"/>
<stop offset="0.99" stop-color="#1A1A1A"/>
</linearGradient>
<linearGradient id="paint2_linear_135_1705" x1="8866.14" y1="9130.1" x2="9998.89" y2="7466.89" gradientUnits="userSpaceOnUse">
<stop stop-opacity="0"/>
<stop offset="0.99" stop-color="#1A1A1A"/>
</linearGradient>
</defs>
</svg>
