<svg width="406" height="306" viewBox="0 0 406 306" fill="none" xmlns="http://www.w3.org/2000/svg">
<path d="M377.783 141.256L240.149 61.2136C239.16 60.6425 238.038 60.3419 236.896 60.3419C235.754 60.3419 234.632 60.6425 233.643 61.2136L27.811 179.004C26.8178 179.574 25.9925 180.396 25.4186 181.387C24.8447 182.378 24.5425 183.503 24.5425 184.648C24.5425 185.793 24.8447 186.918 25.4186 187.909C25.9925 188.899 26.8178 189.721 27.811 190.291L159.436 266.284C162.666 268.149 166.329 269.13 170.058 269.13C173.787 269.13 177.451 268.149 180.68 266.284L377.793 152.523C378.781 151.951 379.601 151.129 380.171 150.14C380.741 149.15 381.04 148.028 381.039 146.887C381.038 145.745 380.737 144.624 380.165 143.636C379.594 142.647 378.772 141.827 377.783 141.256Z" fill="#FFB3A6"/>
<path style="mix-blend-mode:multiply" opacity="0.32" d="M127.139 178.192L77.3227 207.637L48.9128 190.991L93.4916 163.515" fill="url(#paint0_linear_135_1440)"/>
<path style="mix-blend-mode:multiply" opacity="0.32" d="M207.892 223.248L166.724 246.086L138.314 229.44L197.397 197.183" fill="url(#paint1_linear_135_1440)"/>
<path style="mix-blend-mode:multiply" opacity="0.32" d="M294.766 132.913L244.95 162.358L216.54 145.702L261.119 118.236" fill="url(#paint2_linear_135_1440)"/>
<path d="M277.653 87.6543C277.653 87.6543 293.579 73.0992 306.53 84.1323C319.146 94.8811 317.167 113.567 306.855 124.276C295.964 135.583 281.581 139.907 266.346 141.531C263.504 141.835 244.798 143.723 245.325 142.474C245.325 142.474 234.221 122.459 236.617 94.3939C239.012 66.3292 252.126 59.2343 268.305 64.492C279.125 68.0141 282.454 79.9708 277.653 87.6543Z" fill="#AF1414"/>
<path d="M270.863 84.1526C270.863 84.1526 287.194 70.785 301.526 79.92C315.482 88.852 313.513 104.432 304.754 116.46C295.497 129.137 281.835 135.38 266.965 139.034C264.184 139.714 246.361 144.931 244.392 142.008C244.392 142.008 232.547 124.499 231.116 96.3326C229.684 68.1663 249.548 61.1121 260.733 63.2131C271.919 65.3142 274.578 75.86 270.863 84.1526Z" fill="#E53030"/>
<path d="M90.1828 105.528V113.78C89.8685 115.284 89.1163 116.662 88.0208 117.739C86.3461 119.16 79.5253 122.083 79.6471 128.813C79.7587 134.903 79.5151 175.868 79.5151 175.868H128.905V128.802C128.905 128.802 127.403 121.758 122.429 118.378C121.271 117.764 120.214 116.977 119.293 116.044C117.852 114.207 118.582 111.984 118.806 108.868C118.827 107.485 118.77 106.103 118.633 104.727" fill="#603316"/>
<path d="M88.0208 96.6675V105.173H121.658V96.6675" fill="#DBDBDB"/>
<path d="M104.839 112.573C114.128 112.573 121.658 109.26 121.658 105.173C121.658 101.087 114.128 97.7739 104.839 97.7739C95.5507 97.7739 88.0208 101.087 88.0208 105.173C88.0208 109.26 95.5507 112.573 104.839 112.573Z" fill="#DBDBDB"/>
<path d="M104.839 104.067C114.128 104.067 121.658 100.754 121.658 96.6675C121.658 92.5809 114.128 89.2681 104.839 89.2681C95.5507 89.2681 88.0208 92.5809 88.0208 96.6675C88.0208 100.754 95.5507 104.067 104.839 104.067Z" fill="#EDEDED"/>
<path d="M104.22 184.648C117.859 184.648 128.915 180.408 128.915 175.178C128.915 169.948 117.859 165.708 104.22 165.708C90.5817 165.708 79.5254 169.948 79.5254 175.178C79.5254 180.408 90.5817 184.648 104.22 184.648Z" fill="#603316"/>
<path d="M128.905 130.812C128.266 130.944 108.981 137.917 90.8933 133.228V165.708C90.8933 165.708 111.965 173.371 128.905 162.906V130.812Z" fill="#2388D2"/>
<path d="M144.607 44.6589V93.6733L161.73 83.1782V35.2296L144.607 44.6589Z" fill="#2388D2"/>
<path d="M132.914 67.0802V83.7059L173.423 59.9651V43.6236L132.914 67.0802Z" fill="#2388D2"/>
<path d="M244.787 106.158C248.364 106.158 251.263 102.263 251.263 97.4592C251.263 92.6552 248.364 88.7607 244.787 88.7607C241.211 88.7607 238.312 92.6552 238.312 97.4592C238.312 102.263 241.211 106.158 244.787 106.158Z" fill="#EDEDED"/>
<path d="M185.674 199.69C185.674 199.69 192.85 196.503 194.575 196.371C196.301 196.239 199.184 196.838 196.666 200.005C196.666 200.005 189.125 204.938 188.13 205.08C187.136 205.222 184.72 204.481 184.659 204.735C184.598 204.988 184.375 206.897 184.375 206.897C184.375 206.897 178.072 209.302 177.787 205.08C177.787 204.532 178.701 196.706 178.701 196.706" fill="#603316"/>
<path d="M177.452 181.237C178.701 173.117 180.985 165.271 181.929 157.07C182.527 151.904 182.944 146.717 183.593 141.561C184.243 136.405 186.151 131.411 187.389 126.336C187.422 126.218 187.415 126.092 187.369 125.978C187.323 125.865 187.241 125.769 187.135 125.707C187.196 125.524 187.247 125.351 187.308 125.169C187.947 124.56 188.597 123.981 189.226 123.433L198.047 129.371C198.047 129.371 197.996 134.771 197.722 142.566C196.707 147.123 195.915 151.193 194.758 155.517C194.882 155.652 194.972 155.814 195.02 155.991C195.067 156.168 195.072 156.353 195.032 156.532C192.169 170.159 190.085 183.938 188.79 197.802C188.768 198.029 188.682 198.245 188.542 198.425C188.402 198.605 188.213 198.741 187.998 198.817L187.755 200.949C180.081 203.912 178.396 198.756 178.396 198.756C178.396 198.756 178.051 194.361 177.615 188.261C177.432 185.927 177.402 183.582 177.452 181.237Z" fill="#34323D"/>
<path d="M201.376 211.515L205.639 213.037C205.764 213.427 205.989 213.778 206.292 214.054C206.595 214.33 206.965 214.522 207.365 214.611C207.515 214.793 207.729 214.913 207.963 214.945C209.696 215.07 211.434 214.788 213.038 214.123C215.068 213.484 223.046 210.439 220.834 216.153C219.382 217.168 217.789 218.051 216.266 218.965C215.434 219.472 214.591 219.98 213.729 220.457C213.272 220.767 212.768 221 212.237 221.147C211.09 221.32 208.309 220.457 208.238 220.751C208.166 221.046 207.913 223.238 207.913 223.238C207.913 223.238 200.655 226.009 200.341 221.147C200.28 220.518 201.376 211.515 201.376 211.515Z" fill="#603316"/>
<path d="M195.377 167.91C194.484 153.579 193.997 139.155 190.972 125.067C190.84 121.403 188.465 123.748 188.628 122.296C189.917 110.502 207.06 124.58 207.06 124.58C207.76 125.148 207.842 128.762 207.984 129.584C208.762 134.111 209.438 138.655 210.014 143.215C212.856 166.236 211.81 189.144 210.643 212.235C206.999 215.96 204.604 217.077 198.727 214.671C197.549 199.558 196.433 184.435 195.469 169.311L195.377 167.91Z" fill="#34323D"/>
<path d="M198.757 103.427C198.952 105.657 199.826 107.774 201.262 109.491C202.697 111.208 204.626 112.443 206.786 113.029C206.786 113.476 206.918 116.196 206.969 116.643C201.802 115.404 197.996 108.919 197.458 103.448C197.377 102.595 198.676 102.605 198.757 103.427Z" fill="#34323D"/>
<path d="M212.45 117.576L198.737 110.005L199.204 93.3992C196.301 92.5263 192.546 91.562 189.572 92.6176C186.192 93.8255 185.41 98.9309 184.953 101.966C184.172 107.173 183.938 112.39 183.421 117.627L181.482 138.567L179.929 155.406C179.848 156.268 178.61 162.003 179.259 162.653C179.259 162.653 190.901 174.173 202.99 173.483C207.23 173.198 211.225 171.396 214.246 168.408L212.45 117.576Z" fill="white"/>
<path d="M243.793 92.4248C243.793 92.4248 238.058 100.047 234.546 101.641L236.282 105.173L248.908 100.677C248.908 100.677 250.776 92.4248 243.793 92.4248Z" fill="#CCC9C6"/>
<path d="M247.376 98.0479L247.02 98.2408C248.31 97.0938 246.858 94.7289 245.295 95.7642L244.574 96.2311C244.477 96.0155 244.329 95.8274 244.141 95.6834C243.954 95.5394 243.734 95.4441 243.5 95.4059C243.267 95.3677 243.028 95.3878 242.805 95.4645C242.581 95.5412 242.38 95.672 242.22 95.8454C240.975 97.285 239.618 98.6223 238.16 99.8445L238.332 95.3582C238.403 93.5718 235.876 93.3891 235.338 94.9522C235.045 96.1853 234.909 97.4505 234.932 98.7178C234.812 100.066 234.185 101.318 233.176 102.22C232.989 102.381 232.851 102.59 232.776 102.824C232.701 103.059 232.692 103.31 232.75 103.549H232.547C230.811 103.722 230.628 106.198 232.019 106.594C230.659 107.406 231.471 109.873 233.206 109.355C238.026 107.945 242.678 106.015 247.081 103.6C247.267 103.502 247.429 103.364 247.555 103.195C247.681 103.027 247.767 102.832 247.808 102.626C247.849 102.42 247.843 102.207 247.791 102.003C247.739 101.799 247.642 101.61 247.508 101.448L248.949 100.687C250.634 99.743 249.101 97.104 247.376 98.0479Z" fill="#FCBF81"/>
<path d="M198.737 91.6229C198.737 91.6229 208.887 104.067 214.256 104.067C218.113 104.067 230.385 98.87 234.323 98.1798C237.997 101.296 238.241 106.746 235.957 110.908C224.213 116.633 212.307 123.453 206.278 120.469C198.991 116.856 189.023 103.295 189.023 103.295C189.023 103.295 181.776 96.16 198.737 91.6229Z" fill="white"/>
<path d="M201.336 95.7743L202.168 89.0753L193.926 89.055L194.667 94.5664C196.741 95.5609 199.045 95.9782 201.336 95.7743Z" fill="#FFA85A"/>
<path d="M204.38 76.5198C206.299 75.7281 206.969 91.826 203 93.5515C199.031 95.277 194.616 90.1208 192.759 85.6345C190.901 81.1482 195.895 80.0418 204.38 76.5198Z" fill="#FCBF81"/>
<path d="M202.939 77.6769C202.939 77.6769 204.35 81.9805 201.62 82.6301C198.889 83.2797 199.874 84.0409 199.874 85.2691C200.099 86.9513 200.14 88.653 199.996 90.3441C199.681 93.115 198.351 90.8922 197.895 92.2218C197.438 93.5515 190.079 88.446 188.333 81.0568C186.588 73.6676 193.297 72.5308 193.622 72.5207C193.946 72.5105 194.758 70.6429 198.016 70.3283C201.275 70.0136 202.076 71.3433 202.076 71.3433C202.847 70.9887 203.713 70.8959 204.541 71.0792C205.369 71.2624 206.115 71.7117 206.664 72.3583C209.324 75.0277 208.065 79.1994 204.553 80.529L202.939 77.6769Z" fill="#34323D"/>
<path d="M202.208 98.5046L203 94.6578C203 94.6578 194.352 92.1101 193.926 92.1507C193.5 92.1913 192.383 95.9671 192.383 95.9671C192.383 95.9671 197.519 99.0121 202.208 98.5046Z" fill="#EDEDED"/>
<path d="M205.669 97.8043C204.027 97.1473 202.259 96.8631 200.493 96.972C199.374 97.0378 198.252 97.0378 197.133 96.972C196.179 96.9214 195.249 96.6541 194.413 96.1905C192.721 95.3243 192.488 93.8323 193.713 91.7143C194.301 91.4301 193.784 90.5572 193.205 90.8414C190.698 92.029 191.368 95.0841 193.205 96.5863C196.585 99.3573 201.396 97.0532 205.162 98.6772C205.751 98.931 206.268 98.0581 205.669 97.8043Z" fill="#77777A"/>
<path d="M248.908 100.677L260.378 106.158C260.378 106.158 269.411 94.7187 269.411 95.3582C269.411 95.9976 264.245 121.2 264.245 121.2L274.314 109.731L276.892 117.983L284.119 113.821L299.922 122.134" stroke="#F2F2F2" stroke-width="1.015" stroke-miterlimit="10"/>
<defs>
<linearGradient id="paint0_linear_135_1440" x1="70.1365" y1="200.096" x2="112.3" y2="163.546" gradientUnits="userSpaceOnUse">
<stop stop-color="white" stop-opacity="0"/>
<stop offset="0.99" stop-color="#9E005D"/>
</linearGradient>
<linearGradient id="paint1_linear_135_1440" x1="11046.1" y1="11650.2" x2="13003.4" y2="9236.79" gradientUnits="userSpaceOnUse">
<stop stop-color="white" stop-opacity="0"/>
<stop offset="0.99" stop-color="#9E005D"/>
</linearGradient>
<linearGradient id="paint2_linear_135_1440" x1="18200.7" y1="7128.35" x2="19096.4" y2="5511.75" gradientUnits="userSpaceOnUse">
<stop stop-color="white" stop-opacity="0"/>
<stop offset="0.99" stop-color="#9E005D"/>
</linearGradient>
</defs>
</svg>
