<svg width="406" height="306" viewBox="0 0 406 306" fill="none" xmlns="http://www.w3.org/2000/svg">
<path d="M216.134 262.62L368.13 177.36C369.23 176.741 370.15 175.846 370.799 174.763C371.448 173.681 371.804 172.448 371.832 171.186C371.86 169.924 371.558 168.676 370.957 167.566C370.356 166.456 369.476 165.522 368.404 164.855L221.057 73.5661C219.938 72.873 218.653 72.4965 217.337 72.4768C216.021 72.4571 214.725 72.795 213.586 73.4545L52.7799 166.774C51.6802 167.413 50.7676 168.33 50.1333 169.432C49.4989 170.535 49.165 171.784 49.165 173.056C49.165 174.328 49.4989 175.578 50.1333 176.681C50.7676 177.783 51.6802 178.7 52.7799 179.339L196.149 262.569C199.187 264.316 202.629 265.24 206.135 265.249C209.64 265.258 213.086 264.352 216.134 262.62Z" fill="#B4EE73"/>
<path opacity="0.32" d="M209.445 208.825L169.079 231.074L111.68 198.167L149.215 174.833" fill="url(#paint0_linear_135_1506)"/>
<path opacity="0.32" d="M262.763 213.991L197.133 253.363L180.863 243.751L241.489 204.988" fill="url(#paint1_linear_135_1506)"/>
<path opacity="0.32" d="M275.694 156.461L236.505 179.826L214.155 166.611L249.223 144.809" fill="url(#paint2_linear_135_1506)"/>
<path d="M329.875 164.683L328.099 168.53C327.936 168.377 327.825 168.225 327.642 168.083C319.187 161.191 308.57 167.606 302.835 171.229C302.835 171.229 266.6 191.458 262.073 195.082C258.581 197.873 236.627 215.382 226.731 223.248L226.345 221.634L211.719 229.125C211.719 229.125 211.871 234.616 211.719 235.053C211.618 235.406 211.611 235.779 211.7 236.136C211.789 236.492 211.971 236.819 212.226 237.083C212.573 237.43 213.028 237.647 213.516 237.699C214.004 237.751 214.494 237.633 214.906 237.367L225.391 230.556C225.481 230.498 225.576 230.447 225.675 230.404L267.209 212.043C280.191 206.308 320.212 182.608 320.923 181.988C322.506 180.71 329.459 176.781 329.865 172.478L329.875 164.683Z" fill="#C8D2F5"/>
<path d="M328.149 168.54C327.987 168.387 327.875 168.235 327.693 168.093C322.191 163.617 315.797 164.764 310.438 167.078C313.024 169.12 315.107 171.728 316.528 174.701C316.738 174.633 316.962 174.617 317.18 174.653C317.398 174.688 317.604 174.775 317.782 174.905C317.961 175.036 318.105 175.207 318.205 175.404C318.304 175.602 318.356 175.82 318.355 176.041V183.521C319.908 182.587 320.862 182.009 320.963 181.928C322.547 180.649 329.499 176.721 329.905 172.417L329.976 165.241L328.149 168.54Z" fill="#0E577F"/>
<path d="M221.981 220.528L212.622 227.176C212.369 227.357 212.157 227.59 212.003 227.861C211.849 228.131 211.756 228.432 211.73 228.742C211.704 229.052 211.745 229.364 211.852 229.656C211.959 229.949 212.128 230.214 212.348 230.434C212.695 230.781 213.15 230.999 213.638 231.051C214.125 231.102 214.616 230.985 215.028 230.719L225.513 223.908C225.603 223.849 225.698 223.798 225.797 223.756L267.331 205.394C280.313 199.66 320.334 175.959 321.045 175.34C323.156 173.635 334.818 167.22 327.774 161.475C319.319 154.583 308.702 160.998 302.967 164.622C302.967 164.622 266.732 184.851 262.205 188.474C257.678 192.098 223.513 219.31 222.092 220.447L221.981 220.528Z" fill="#F8F6FF"/>
<path d="M299.506 166.601C305.596 170.336 312.021 173.615 318.345 177.005C319.959 175.99 320.943 175.442 321.045 175.35C323.156 173.645 334.818 167.23 327.774 161.485C319.319 154.594 308.702 161.008 302.967 164.632L299.425 166.581L299.506 166.601Z" fill="#0071BC"/>
<path d="M225.503 223.918C225.57 223.451 225.528 222.975 225.38 222.527C225.231 222.079 224.981 221.671 224.648 221.337C224.316 221.002 223.91 220.749 223.463 220.598C223.015 220.447 222.539 220.402 222.072 220.467L213.455 226.679C212.754 227.186 211.77 227.694 211.678 228.628C211.587 229.561 211.678 230.465 211.678 231.338V235.631C212.541 238.991 214.947 237.336 214.947 237.336L225.503 230.526C225.381 228.325 225.381 226.119 225.503 223.918Z" fill="#9D9DA0"/>
<path d="M225.462 224.994C225.462 224.639 225.462 224.294 225.462 223.918C225.529 223.451 225.487 222.975 225.339 222.527C225.191 222.079 224.94 221.671 224.608 221.337C224.275 221.002 223.869 220.749 223.422 220.598C222.975 220.447 222.499 220.402 222.031 220.467L213.414 226.679C212.713 227.186 211.729 227.694 211.638 228.628C211.601 229.134 211.601 229.643 211.638 230.15C211.842 230.411 212.112 230.614 212.419 230.739C216.337 231.003 221.828 227.339 225.462 224.994Z" fill="#CCCCCC"/>
<path d="M298.197 169.494L311.432 177.522L302.693 182.871L289.539 174.944L298.197 169.494Z" fill="#C8D2F5"/>
<path d="M286.23 183.237L271.634 192.372C269.452 193.742 272.243 196.604 274.426 195.234L289.021 186.099C291.163 184.739 288.372 181.867 286.23 183.237Z" fill="#CCCCCC"/>
<path d="M187.552 221.452L230.994 197.092C231.961 196.549 232.771 195.763 233.342 194.812C233.913 193.86 234.225 192.776 234.249 191.667C234.273 190.558 234.006 189.462 233.476 188.487C232.946 187.512 232.171 186.693 231.227 186.109L189.399 160.176C187.609 159.067 185.55 158.464 183.444 158.434C181.338 158.404 179.264 158.946 177.442 160.004L129.067 188.078C128.311 188.516 127.683 189.145 127.246 189.902C126.809 190.659 126.579 191.518 126.579 192.392C126.579 193.266 126.809 194.125 127.246 194.882C127.683 195.639 128.311 196.268 129.067 196.706L171.535 221.34C173.965 222.749 176.72 223.5 179.528 223.52C182.337 223.54 185.102 222.827 187.552 221.452Z" fill="#9FB0DD"/>
<path d="M187.552 219.888L230.994 195.528C231.961 194.986 232.771 194.2 233.342 193.249C233.913 192.297 234.225 191.213 234.249 190.104C234.273 188.995 234.006 187.899 233.476 186.924C232.946 185.949 232.171 185.129 231.227 184.546L189.399 158.603C187.609 157.493 185.55 156.891 183.444 156.861C181.338 156.83 179.264 157.373 177.442 158.43L129.067 186.495C128.311 186.933 127.683 187.562 127.246 188.319C126.809 189.076 126.579 189.935 126.579 190.809C126.579 191.683 126.809 192.542 127.246 193.299C127.683 194.056 128.311 194.685 129.067 195.123L171.535 219.767C173.964 221.177 176.718 221.93 179.527 221.952C182.336 221.973 185.102 221.262 187.552 219.888Z" fill="#C7D0EF"/>
<path opacity="0.58" d="M154.717 171.646L212.947 205.262" stroke="#9D9DB2" stroke-width="1.015" stroke-miterlimit="10"/>
<path d="M154.757 187.713C157.84 187.713 160.34 186.368 160.34 184.709C160.34 183.049 157.84 181.704 154.757 181.704C151.674 181.704 149.175 183.049 149.175 184.709C149.175 186.368 151.674 187.713 154.757 187.713Z" fill="#FFBC5A"/>
<path d="M160.37 182.821V185.013C160.37 185.013 157.071 187.043 154.788 186.85C152.504 186.657 149.205 184.709 149.205 184.709V182.821" fill="#FFBC5A"/>
<path d="M154.757 185.825C157.84 185.825 160.34 184.48 160.34 182.821C160.34 181.161 157.84 179.816 154.757 179.816C151.674 179.816 149.175 181.161 149.175 182.821C149.175 184.48 151.674 185.825 154.757 185.825Z" fill="#FFE9CA"/>
<path d="M151.692 180.913L159.162 184.82L151.692 180.913Z" fill="#FFBC5A"/>
<path d="M151.235 180.517L150.961 180.638L159.162 184.932L159.284 184.698L151.235 180.517Z" fill="#FFBC5A"/>
<path d="M166.44 194.036C169.523 194.036 172.022 192.691 172.022 191.032C172.022 189.373 169.523 188.028 166.44 188.028C163.357 188.028 160.857 189.373 160.857 191.032C160.857 192.691 163.357 194.036 166.44 194.036Z" fill="#FFBC5A"/>
<path d="M172.022 189.144V191.337C172.022 191.337 168.723 193.367 166.44 193.174C164.156 192.981 160.857 191.032 160.857 191.032V189.144" fill="#FFBC5A"/>
<path d="M166.44 192.149C169.523 192.149 172.022 190.803 172.022 189.144C172.022 187.485 169.523 186.14 166.44 186.14C163.357 186.14 160.857 187.485 160.857 189.144C160.857 190.803 163.357 192.149 166.44 192.149Z" fill="#FFE9CA"/>
<path d="M163.415 187.236L170.885 191.144L163.415 187.236Z" fill="#FFBC5A"/>
<path d="M162.897 186.83L162.623 186.952L170.824 191.245L170.946 191.012L162.897 186.83Z" fill="#FFBC5A"/>
<path d="M178.752 200.055C181.835 200.055 184.334 198.71 184.334 197.051C184.334 195.392 181.835 194.047 178.752 194.047C175.669 194.047 173.169 195.392 173.169 197.051C173.169 198.71 175.669 200.055 178.752 200.055Z" fill="#FFBC5A"/>
<path d="M184.334 195.163V197.355C184.334 197.355 181.035 199.385 178.752 199.193C176.468 199 173.169 197.051 173.169 197.051V195.163" fill="#FFBC5A"/>
<path d="M178.752 198.167C181.835 198.167 184.334 196.822 184.334 195.163C184.334 193.504 181.835 192.159 178.752 192.159C175.669 192.159 173.169 193.504 173.169 195.163C173.169 196.822 175.669 198.167 178.752 198.167Z" fill="#FFE9CA"/>
<path d="M175.686 193.255L183.157 197.163L175.686 193.255Z" fill="#FFBC5A"/>
<path d="M175.209 192.849L174.935 192.971L183.136 197.264L183.258 197.031L175.209 192.849Z" fill="#FFBC5A"/>
<path d="M190.82 207.942C193.903 207.942 196.403 206.597 196.403 204.938C196.403 203.278 193.903 201.933 190.82 201.933C187.737 201.933 185.238 203.278 185.238 204.938C185.238 206.597 187.737 207.942 190.82 207.942Z" fill="#FFBC5A"/>
<path d="M196.413 203.06V205.252C196.413 205.252 193.114 207.282 190.83 207.089C188.546 206.896 185.248 204.948 185.248 204.948V203.06" fill="#FFBC5A"/>
<path d="M190.82 206.064C193.903 206.064 196.403 204.719 196.403 203.06C196.403 201.401 193.903 200.055 190.82 200.055C187.737 200.055 185.238 201.401 185.238 203.06C185.238 204.719 187.737 206.064 190.82 206.064Z" fill="#FFE9CA"/>
<path d="M187.775 201.141L195.245 205.049L187.775 201.141Z" fill="#FFBC5A"/>
<path d="M187.278 200.705L187.004 200.827L195.205 205.12L195.327 204.887L187.278 200.705Z" fill="#FFBC5A"/>
<path d="M142.009 193.722C145.092 193.722 147.591 192.377 147.591 190.717C147.591 189.058 145.092 187.713 142.009 187.713C138.926 187.713 136.426 189.058 136.426 190.717C136.426 192.377 138.926 193.722 142.009 193.722Z" fill="#FFBC5A"/>
<path d="M147.591 188.829V191.022C147.591 191.022 144.293 193.052 142.009 192.859C139.725 192.666 136.426 190.717 136.426 190.717V188.829" fill="#FFBC5A"/>
<path d="M142.009 191.834C145.092 191.834 147.591 190.489 147.591 188.829C147.591 187.17 145.092 185.825 142.009 185.825C138.926 185.825 136.426 187.17 136.426 188.829C136.426 190.489 138.926 191.834 142.009 191.834Z" fill="#FFE9CA"/>
<path d="M138.943 186.921L146.414 190.829L138.943 186.921Z" fill="#FFBC5A"/>
<path d="M138.466 186.495L138.192 186.617L146.393 190.91L146.515 190.677L138.466 186.495Z" fill="#FFBC5A"/>
<path d="M153.174 200.045C156.257 200.045 158.756 198.7 158.756 197.041C158.756 195.382 156.257 194.036 153.174 194.036C150.09 194.036 147.591 195.382 147.591 197.041C147.591 198.7 150.09 200.045 153.174 200.045Z" fill="#FFBC5A"/>
<path d="M158.766 195.153V197.345C158.766 197.345 155.468 199.375 153.184 199.183C150.9 198.99 147.601 197.041 147.601 197.041V195.153" fill="#FFBC5A"/>
<path d="M153.174 198.157C156.257 198.157 158.756 196.812 158.756 195.153C158.756 193.494 156.257 192.149 153.174 192.149C150.09 192.149 147.591 193.494 147.591 195.153C147.591 196.812 150.09 198.157 153.174 198.157Z" fill="#FFE9CA"/>
<path d="M150.108 193.235L157.579 197.142L150.108 193.235Z" fill="#FFBC5A"/>
<path d="M149.631 192.839L149.357 192.961L157.558 197.254L157.68 197.021L149.631 192.839Z" fill="#FFBC5A"/>
<path d="M166.44 207.79C169.523 207.79 172.022 206.445 172.022 204.785C172.022 203.126 169.523 201.781 166.44 201.781C163.357 201.781 160.857 203.126 160.857 204.785C160.857 206.445 163.357 207.79 166.44 207.79Z" fill="#FFBC5A"/>
<path d="M172.022 202.897V205.09C172.022 205.09 168.723 207.12 166.44 206.927C164.156 206.734 160.857 204.785 160.857 204.785V202.897" fill="#FFBC5A"/>
<path d="M166.44 205.902C169.523 205.902 172.022 204.557 172.022 202.897C172.022 201.238 169.523 199.893 166.44 199.893C163.357 199.893 160.857 201.238 160.857 202.897C160.857 204.557 163.357 205.902 166.44 205.902Z" fill="#FFE9CA"/>
<path d="M163.415 200.979L170.885 204.887L163.415 200.979Z" fill="#FFBC5A"/>
<path d="M162.897 200.583L162.623 200.705L170.824 204.998L170.946 204.765L162.897 200.583Z" fill="#FFBC5A"/>
<path d="M178.752 214.834C181.835 214.834 184.334 213.489 184.334 211.829C184.334 210.17 181.835 208.825 178.752 208.825C175.669 208.825 173.169 210.17 173.169 211.829C173.169 213.489 175.669 214.834 178.752 214.834Z" fill="#FFBC5A"/>
<path d="M184.334 209.941V212.134C184.334 212.134 181.035 214.164 178.752 213.971C176.468 213.778 173.169 211.829 173.169 211.829V209.941" fill="#FFBC5A"/>
<path d="M178.752 212.946C181.835 212.946 184.334 211.601 184.334 209.942C184.334 208.282 181.835 206.937 178.752 206.937C175.669 206.937 173.169 208.282 173.169 209.942C173.169 211.601 175.669 212.946 178.752 212.946Z" fill="#FFE9CA"/>
<path d="M175.686 208.033L183.157 211.941L175.686 208.033Z" fill="#FFBC5A"/>
<path d="M175.209 207.627L174.935 207.749L183.136 212.043L183.258 211.809L175.209 207.627Z" fill="#FFBC5A"/>
<path d="M185.451 170.214C188.534 170.214 191.033 168.869 191.033 167.21C191.033 165.551 188.534 164.206 185.451 164.206C182.368 164.206 179.868 165.551 179.868 167.21C179.868 168.869 182.368 170.214 185.451 170.214Z" fill="#FFBC5A"/>
<path d="M191.043 165.322V167.514C191.043 167.514 187.745 169.544 185.461 169.352C183.177 169.159 179.878 167.21 179.878 167.21V165.322" fill="#FFBC5A"/>
<path d="M185.451 168.327C188.534 168.327 191.033 166.981 191.033 165.322C191.033 163.663 188.534 162.318 185.451 162.318C182.368 162.318 179.868 163.663 179.868 165.322C179.868 166.981 182.368 168.327 185.451 168.327Z" fill="#FFE9CA"/>
<path d="M182.385 163.414L189.856 167.322L182.385 163.414Z" fill="#FFBC5A"/>
<path d="M181.908 163.008L181.685 163.15L189.886 167.443L190.008 167.21L181.908 163.008Z" fill="#FFBC5A"/>
<path d="M197.133 176.528C200.216 176.528 202.716 175.183 202.716 173.523C202.716 171.864 200.216 170.519 197.133 170.519C194.05 170.519 191.551 171.864 191.551 173.523C191.551 175.183 194.05 176.528 197.133 176.528Z" fill="#FFBC5A"/>
<path d="M202.726 171.646V173.838C202.726 173.838 199.427 175.868 197.144 175.675C194.86 175.482 191.561 173.533 191.561 173.533V171.646" fill="#FFBC5A"/>
<path d="M197.133 174.65C200.216 174.65 202.716 173.305 202.716 171.646C202.716 169.986 200.216 168.641 197.133 168.641C194.05 168.641 191.551 169.986 191.551 171.646C191.551 173.305 194.05 174.65 197.133 174.65Z" fill="#FFE9CA"/>
<path d="M194.068 169.727L201.538 173.635L194.068 169.727Z" fill="#FFBC5A"/>
<path d="M193.591 169.331L193.317 169.453L201.518 173.747L201.64 173.513L193.591 169.331Z" fill="#FFBC5A"/>
<path d="M209.445 182.557C212.528 182.557 215.028 181.212 215.028 179.552C215.028 177.893 212.528 176.548 209.445 176.548C206.362 176.548 203.863 177.893 203.863 179.552C203.863 181.212 206.362 182.557 209.445 182.557Z" fill="#FFBC5A"/>
<path d="M215.038 177.664V179.857C215.038 179.857 211.739 181.887 209.455 181.694C207.172 181.501 203.873 179.552 203.873 179.552V177.664" fill="#FFBC5A"/>
<path d="M209.445 180.669C212.528 180.669 215.028 179.324 215.028 177.665C215.028 176.005 212.528 174.66 209.445 174.66C206.362 174.66 203.863 176.005 203.863 177.665C203.863 179.324 206.362 180.669 209.445 180.669Z" fill="#FFE9CA"/>
<path d="M206.38 175.746L213.85 179.654L206.38 175.746Z" fill="#FFBC5A"/>
<path d="M205.903 175.33L205.629 175.452L213.83 179.745L213.952 179.512L205.903 175.33Z" fill="#FFBC5A"/>
<path d="M221.514 190.443C224.597 190.443 227.096 189.098 227.096 187.439C227.096 185.78 224.597 184.435 221.514 184.435C218.431 184.435 215.931 185.78 215.931 187.439C215.931 189.098 218.431 190.443 221.514 190.443Z" fill="#FFBC5A"/>
<path d="M227.106 185.551V187.743C227.106 187.743 223.807 189.773 221.524 189.581C219.24 189.388 215.941 187.439 215.941 187.439V185.551" fill="#FFBC5A"/>
<path d="M221.514 188.555C224.597 188.555 227.096 187.21 227.096 185.551C227.096 183.892 224.597 182.547 221.514 182.547C218.431 182.547 215.931 183.892 215.931 185.551C215.931 187.21 218.431 188.555 221.514 188.555Z" fill="#FFE9CA"/>
<path d="M218.448 183.643L225.919 187.551L218.448 183.643Z" fill="#FFBC5A"/>
<path d="M217.971 183.237L217.697 183.359L225.898 187.652L226.02 187.419L217.971 183.237Z" fill="#FFBC5A"/>
<path d="M172.702 176.213C175.785 176.213 178.285 174.868 178.285 173.209C178.285 171.549 175.785 170.204 172.702 170.204C169.619 170.204 167.12 171.549 167.12 173.209C167.12 174.868 169.619 176.213 172.702 176.213Z" fill="#FFBC5A"/>
<path d="M178.285 171.321V173.513C178.285 173.513 174.986 175.543 172.702 175.35C170.418 175.157 167.12 173.209 167.12 173.209V171.321" fill="#FFBC5A"/>
<path d="M172.702 174.325C175.785 174.325 178.285 172.98 178.285 171.321C178.285 169.661 175.785 168.316 172.702 168.316C169.619 168.316 167.12 169.661 167.12 171.321C167.12 172.98 169.619 174.325 172.702 174.325Z" fill="#FFE9CA"/>
<path d="M169.637 169.413L177.107 173.32L169.637 169.413Z" fill="#FFBC5A"/>
<path d="M169.16 169.017L168.886 169.138L177.087 173.432L177.209 173.198L169.16 169.017Z" fill="#FFBC5A"/>
<path d="M183.877 182.537C186.961 182.537 189.46 181.191 189.46 179.532C189.46 177.873 186.961 176.528 183.877 176.528C180.794 176.528 178.295 177.873 178.295 179.532C178.295 181.191 180.794 182.537 183.877 182.537Z" fill="#FFBC5A"/>
<path d="M189.46 177.644V179.837C189.46 179.837 186.161 181.867 183.877 181.674C181.594 181.481 178.295 179.532 178.295 179.532V177.644" fill="#FFBC5A"/>
<path d="M183.877 180.649C186.961 180.649 189.46 179.303 189.46 177.644C189.46 175.985 186.961 174.64 183.877 174.64C180.794 174.64 178.295 175.985 178.295 177.644C178.295 179.303 180.794 180.649 183.877 180.649Z" fill="#FFE9CA"/>
<path d="M180.812 175.736L188.282 179.644L180.812 175.736Z" fill="#FFBC5A"/>
<path d="M180.335 175.33L180.061 175.452L188.262 179.745L188.384 179.512L180.335 175.33Z" fill="#FFBC5A"/>
<path d="M197.133 190.281C200.216 190.281 202.716 188.936 202.716 187.277C202.716 185.617 200.216 184.272 197.133 184.272C194.05 184.272 191.551 185.617 191.551 187.277C191.551 188.936 194.05 190.281 197.133 190.281Z" fill="#FFBC5A"/>
<path d="M202.726 185.389V187.581C202.726 187.581 199.427 189.611 197.144 189.418C194.86 189.225 191.561 187.277 191.561 187.277V185.389" fill="#FFBC5A"/>
<path d="M197.133 188.393C200.216 188.393 202.716 187.048 202.716 185.389C202.716 183.729 200.216 182.384 197.133 182.384C194.05 182.384 191.551 183.729 191.551 185.389C191.551 187.048 194.05 188.393 197.133 188.393Z" fill="#FFE9CA"/>
<path d="M194.068 183.45L201.538 187.358L194.068 183.45Z" fill="#FFBC5A"/>
<path d="M193.591 183.074L193.317 183.196L201.477 187.51L201.599 187.277L193.591 183.074Z" fill="#FFBC5A"/>
<path d="M209.445 197.325C212.528 197.325 215.028 195.98 215.028 194.321C215.028 192.661 212.528 191.316 209.445 191.316C206.362 191.316 203.863 192.661 203.863 194.321C203.863 195.98 206.362 197.325 209.445 197.325Z" fill="#FFBC5A"/>
<path d="M215.038 192.443V194.615C215.038 194.615 211.739 196.645 209.455 196.452C207.172 196.259 203.873 194.311 203.873 194.311V192.423" fill="#FFBC5A"/>
<path d="M209.445 195.447C212.528 195.447 215.028 194.102 215.028 192.443C215.028 190.784 212.528 189.438 209.445 189.438C206.362 189.438 203.863 190.784 203.863 192.443C203.863 194.102 206.362 195.447 209.445 195.447Z" fill="#FFE9CA"/>
<path d="M206.38 190.555L213.85 194.463L206.38 190.555Z" fill="#FFBC5A"/>
<path d="M205.903 190.129L205.629 190.251L213.83 194.544L213.952 194.311L205.903 190.129Z" fill="#FFBC5A"/>
<path opacity="0.32" d="M140.283 165.434L101.094 188.799L78.7437 175.584L113.812 153.782" fill="url(#paint3_linear_135_1506)"/>
<path d="M210.694 65.2634L193.236 56.0472C192.827 55.7166 192.358 55.4684 191.855 55.3164C191.342 55.1628 190.802 55.116 190.27 55.1789C189.737 55.2417 189.223 55.4129 188.759 55.6818L111.051 100.007C110.433 100.356 109.918 100.863 109.561 101.477C109.205 102.091 109.018 102.788 109.021 103.498L109.397 156.41C109.398 156.955 109.512 157.493 109.732 157.991C109.952 158.489 110.273 158.936 110.675 159.303C111.173 159.759 111.777 160.083 112.431 160.247L129.595 169.504C129.595 169.504 136.132 153.995 132.64 150.737C132.408 150.536 132.134 150.39 131.838 150.31L192.738 114.958C193.351 114.613 193.861 114.111 194.218 113.505C194.574 112.899 194.764 112.21 194.768 111.507V71.8L195.306 74.9161L210.694 65.2634Z" fill="#2388D2"/>
<path opacity="0.22" d="M210.694 65.2634L193.236 56.0472C192.827 55.7166 192.358 55.4684 191.855 55.3164C191.342 55.1628 190.802 55.116 190.27 55.1789C189.737 55.2417 189.223 55.4129 188.759 55.6818L111.051 100.007C110.433 100.356 109.918 100.863 109.561 101.477C109.205 102.091 109.018 102.788 109.021 103.498L109.397 156.41C109.398 156.955 109.512 157.493 109.732 157.991C109.952 158.489 110.273 158.936 110.675 159.303C111.173 159.759 111.777 160.083 112.431 160.247L129.595 169.504C129.595 169.504 136.132 153.995 132.64 150.737C132.408 150.536 132.134 150.39 131.838 150.31L192.738 114.958C193.351 114.613 193.861 114.111 194.218 113.505C194.574 112.899 194.764 112.21 194.768 111.507V71.8L195.306 74.9161L210.694 65.2634Z" fill="#272322"/>
<path d="M128.824 109.649L206.339 64.9893C206.944 64.6411 207.631 64.4578 208.329 64.4578C209.027 64.4579 209.713 64.6412 210.318 64.9896C210.924 65.3379 211.427 65.839 211.778 66.4428C212.129 67.0466 212.315 67.7319 212.318 68.4302L212.541 120.794C212.543 121.491 212.362 122.177 212.017 122.782C211.671 123.388 211.173 123.892 210.572 124.245L133.432 169.453C132.83 169.804 132.146 169.992 131.449 169.997C130.752 170.001 130.066 169.823 129.459 169.48C128.852 169.137 128.346 168.641 127.99 168.042C127.635 167.442 127.443 166.76 127.433 166.063L126.834 113.151C126.825 112.443 127.005 111.746 127.355 111.131C127.704 110.515 128.211 110.004 128.824 109.649Z" fill="#2388D2"/>
<path opacity="0.37" d="M128.824 109.649L206.339 64.9893C206.944 64.6411 207.631 64.4578 208.329 64.4578C209.027 64.4579 209.713 64.6412 210.318 64.9896C210.924 65.3379 211.427 65.839 211.778 66.4428C212.129 67.0466 212.315 67.7319 212.318 68.4302L212.541 120.794C212.543 121.491 212.362 122.177 212.017 122.782C211.671 123.388 211.173 123.892 210.572 124.245L133.432 169.453C132.83 169.804 132.146 169.992 131.449 169.997C130.752 170.001 130.066 169.823 129.459 169.48C128.852 169.137 128.346 168.641 127.99 168.042C127.635 167.442 127.443 166.76 127.433 166.063L126.834 113.151C126.825 112.443 127.005 111.746 127.355 111.131C127.704 110.515 128.211 110.004 128.824 109.649Z" fill="white"/>
<path d="M142.922 93.0947C145.361 93.0947 147.337 92.2358 147.337 91.1763C147.337 90.1169 145.361 89.258 142.922 89.258C140.484 89.258 138.507 90.1169 138.507 91.1763C138.507 92.2358 140.484 93.0947 142.922 93.0947Z" fill="#272322"/>
<path d="M173.382 78.2554C175.821 78.2554 177.798 77.3965 177.798 76.3371C177.798 75.2776 175.821 74.4187 173.382 74.4187C170.944 74.4187 168.967 75.2776 168.967 76.3371C168.967 77.3965 170.944 78.2554 173.382 78.2554Z" fill="#272322"/>
<path d="M168.987 75.251C168.967 75.7871 169.022 76.3234 169.15 76.8446C170.226 77.1085 171.433 76.3371 172.519 76.195C173.94 76.0021 177.117 77.5551 177.808 76.3371C177.808 74.4593 177.148 70.6936 175.636 69.3944C172.591 66.7554 168.023 68.5622 164.978 70.1456C162.999 71.1606 161.04 72.2364 159.091 73.3123C156.696 74.6251 154.307 75.9514 151.925 77.2912C149.723 78.5295 147.622 79.9099 145.307 80.9452C144.315 81.3811 143.378 81.9331 142.516 82.5894C141.192 83.5771 140.133 84.8772 139.433 86.3738C138.734 87.8703 138.415 89.5168 138.507 91.1662H147.347V87.2077C147.261 86.5645 147.359 85.91 147.63 85.3205C147.902 84.731 148.335 84.2309 148.88 83.8785C150.798 82.5996 167.15 73.8706 168.043 74.1345C168.937 74.3984 168.865 74.2563 168.987 75.251Z" fill="#272322"/>
<path d="M163.76 100.342V137.582L176.762 129.614V93.1658L163.76 100.342Z" fill="#F15A24"/>
<path d="M154.869 117.374V130.01L185.654 111.964V99.5501L154.869 117.374Z" fill="#F15A24"/>
<path d="M222.884 158.583C222.884 158.583 223.899 142.271 224.284 138.283C224.63 134.639 225.848 118.612 235.866 113.547C248.533 107.152 263.139 98.8396 276.638 102.707C287.57 105.843 291.305 143.692 291.183 146.22C290.97 150.716 257.039 174.701 222.884 158.583Z" fill="white"/>
<path d="M245.528 108.645C242.22 110.238 238.982 111.933 235.866 113.506C225.837 118.581 224.63 134.598 224.284 138.242C223.899 142.302 222.884 158.542 222.884 158.542C234.1 163.83 243.559 165.951 264.235 162.277C264.245 160.491 250.502 126.61 245.528 108.645Z" fill="#D4DEE8"/>
<path d="M276.638 102.666C273.493 101.792 270.217 101.493 266.965 101.783C271.714 119.862 275.277 138.232 277.633 156.776C285.926 152.635 291.102 147.935 291.193 146.179C291.305 143.662 287.58 105.803 276.638 102.666Z" fill="#D4DEE8"/>
<path d="M279.25 132.051C280.04 129.461 278.795 126.786 276.468 126.076C274.142 125.365 271.614 126.888 270.824 129.478C270.033 132.067 271.278 134.743 273.605 135.453C275.932 136.164 278.459 134.64 279.25 132.051Z" fill="#9E9E9E"/>
<path d="M273.938 127.737C274.355 127.463 273.603 101.276 258.48 102.849C243.356 104.422 244.615 115.638 245.173 121.403L242.737 121.748C242.737 121.748 239.895 101.732 259.211 101.692C278.526 101.651 275.39 129.351 275.39 129.351" fill="#9E9E9E"/>
<path d="M245.193 145.976C242.849 145.895 239.103 145.976 237.134 144.647C235.165 143.317 235.46 141.602 235.663 139.267C236.14 133.898 236.556 123.93 242.768 121.748C248.147 119.85 252.684 123.778 254.592 128.488C255.831 131.533 257.861 136.608 257.099 139.998C256.501 142.718 253.557 144.149 251.192 145.185C250.745 145.377 250.36 144.728 250.806 144.535C253.577 143.327 256.49 141.703 256.338 138.333C256.088 135.393 255.404 132.506 254.308 129.767C252.451 124.692 247.548 120.043 242.128 122.986C237.652 125.402 237.144 133.928 236.647 138.343C236.312 141.216 235.947 143.083 239.144 144.494C240.92 145.276 243.377 145.164 245.305 145.235C245.792 145.235 245.792 146.007 245.305 145.997L245.193 145.976Z" fill="#4D4D4D"/>
<path d="M252.481 144.119C252.481 144.535 253.05 145.205 252.481 145.489C251.913 145.773 250.086 146.575 249.913 145.976C249.741 145.377 249.457 144.464 249.913 144.119C250.37 143.774 252.481 142.748 252.481 144.119Z" fill="#4A2B0F"/>
<path d="M246.188 145.418C246.097 145.824 246.513 146.605 245.894 146.758C245.275 146.91 243.316 147.306 243.275 146.687C243.235 146.068 243.153 145.113 243.671 144.87C244.189 144.626 246.483 144.078 246.188 145.418Z" fill="#4A2B0F"/>
<path d="M270.7 81.0873C270.7 81.0873 273.39 78.905 274.943 73.83C276.496 68.755 273.928 61.376 268.396 60.6959C262.865 60.0159 261.2 62.8579 261.2 62.8579C261.2 62.8579 240.677 59.214 237.51 75.3018C236.931 79.8084 234.465 96.16 247.802 99.743C261.139 103.326 256.348 84.386 256.348 84.386" fill="#4B1B13"/>
<path d="M271.279 77.5348C271.279 77.5348 271.228 88.1314 271.279 92.0696C271.34 96.2209 269.584 107.427 262.763 107.071C255.942 106.716 248.949 98.7787 248.949 96.9213C248.949 96.9213 242.057 92.6278 245.904 89.3291C249.751 86.0303 250.106 91.6128 250.106 91.6128C250.106 91.6128 252.217 88.5678 252.359 80.2956C258.8 81.0979 265.337 80.1439 271.279 77.5348Z" fill="#FFAC73"/>
<path d="M249.254 107.944C252.735 111.152 258.389 111.75 263.626 110.989C264.019 110.962 264.391 110.799 264.677 110.529C264.964 110.259 265.149 109.898 265.199 109.507C265.28 107.904 265.382 106.3 265.524 104.696L247.528 95.8961L248.919 107.366C248.919 107.366 249.04 107.599 249.254 107.944Z" fill="#FFAC73"/>
<path d="M261.596 111.212C262.296 111.162 262.997 111.091 263.687 110.989C264.065 110.962 264.423 110.804 264.698 110.543C264.974 110.283 265.151 109.934 265.199 109.558C265.199 108.726 265.28 107.893 265.341 107.051C261.535 107.051 254.755 106.158 251.131 99.0934C251.595 101.879 252.817 104.484 254.663 106.621C256.509 108.759 258.908 110.347 261.596 111.212Z" fill="#E5894A"/>
<path d="M269.076 93.6123C271.05 93.6123 272.649 91.4402 272.649 88.7606C272.649 86.0811 271.05 83.9089 269.076 83.9089C267.103 83.9089 265.504 86.0811 265.504 88.7606C265.504 91.4402 267.103 93.6123 269.076 93.6123Z" stroke="#42210B" stroke-width="0.76125" stroke-miterlimit="10"/>
<path d="M259.028 95.9164C261.214 95.9164 262.987 93.7442 262.987 91.0647C262.987 88.3852 261.214 86.213 259.028 86.213C256.842 86.213 255.07 88.3852 255.07 91.0647C255.07 93.7442 256.842 95.9164 259.028 95.9164Z" stroke="#42210B" stroke-width="0.76125" stroke-miterlimit="10"/>
<path d="M265.504 89.9279L262.987 90.2832" stroke="#42210B" stroke-width="0.76125" stroke-miterlimit="10"/>
<path d="M255.07 91.0647L249.467 89.664" stroke="#42210B" stroke-width="0.76125" stroke-miterlimit="10"/>
<path d="M244.92 164.084C243.986 161.871 242.595 149.772 242.595 149.772V163.749L244.92 164.084Z" fill="#9E9E9E"/>
<defs>
<linearGradient id="paint0_linear_135_1506" x1="151.397" y1="218.782" x2="161.558" y2="201.842" gradientUnits="userSpaceOnUse">
<stop stop-opacity="0"/>
<stop offset="0.99" stop-color="#1A1A1A"/>
</linearGradient>
<linearGradient id="paint1_linear_135_1506" x1="16338.2" y1="11968.3" x2="18617" y2="8624.54" gradientUnits="userSpaceOnUse">
<stop stop-opacity="0"/>
<stop offset="0.99" stop-color="#1A1A1A"/>
</linearGradient>
<linearGradient id="paint2_linear_135_1506" x1="14209.5" y1="6113.19" x2="15271.7" y2="4495.69" gradientUnits="userSpaceOnUse">
<stop stop-opacity="0"/>
<stop offset="0.99" stop-color="#1A1A1A"/>
</linearGradient>
<linearGradient id="paint3_linear_135_1506" x1="5864.07" y1="6431.72" x2="6926.14" y2="4813.96" gradientUnits="userSpaceOnUse">
<stop stop-opacity="0"/>
<stop offset="0.99" stop-color="#1A1A1A"/>
</linearGradient>
</defs>
</svg>
