<svg width="406" height="306" viewBox="0 0 406 306" fill="none" xmlns="http://www.w3.org/2000/svg">
<path d="M204.198 289.538L356.194 204.278C357.294 203.659 358.214 202.764 358.863 201.681C359.512 200.599 359.868 199.366 359.896 198.104C359.923 196.842 359.622 195.594 359.021 194.484C358.42 193.374 357.54 192.44 356.468 191.773L209.09 100.433C207.972 99.74 206.686 99.3635 205.37 99.3438C204.055 99.3242 202.758 99.6621 201.62 100.321L40.8639 193.6C39.7642 194.239 38.8516 195.156 38.2172 196.259C37.5829 197.361 37.249 198.611 37.249 199.883C37.249 201.155 37.5829 202.405 38.2172 203.507C38.8516 204.61 39.7642 205.526 40.8639 206.166L184.233 289.396C187.261 291.153 190.695 292.09 194.196 292.115C197.698 292.14 201.145 291.252 204.198 289.538Z" fill="#FFD49C"/>
<path style="mix-blend-mode:multiply" opacity="0.32" d="M195.499 229.277L142.78 258.529L131.859 243.69L180.457 218.447" fill="url(#paint0_linear_135_1351)"/>
<path style="mix-blend-mode:multiply" opacity="0.32" d="M339.071 201.101L286.362 230.353L275.44 215.514L327.581 187.662" fill="url(#paint1_linear_135_1351)"/>
<path style="mix-blend-mode:multiply" opacity="0.32" d="M308.398 187.896L255.689 217.148L168.449 164.063L204.025 125.849" fill="url(#paint2_linear_135_1351)"/>
<path d="M263.859 178.74L263.656 209.556L266.793 211.149L268.488 205.526V184.668V179.867" fill="#EDEFDF"/>
<path d="M270.173 183.085V209.201L266.793 211.149V179.867L270.173 183.085Z" fill="#FEFFFA"/>
<path d="M302.084 157.354L301.891 188.16L305.018 189.763L306.713 184.13V163.272V158.471" fill="#EDEFDF"/>
<path d="M308.398 161.688V187.804L305.018 189.763V158.471L308.398 161.688Z" fill="#FEFFFA"/>
<path d="M219.027 109L308.398 160.876L270.173 183.085L180.457 131.431L219.027 109Z" fill="#FEFFFA"/>
<path d="M180.457 131.431V127.493L186.516 130.294L185.999 132.101" fill="#FEFFFA"/>
<path d="M308.398 160.876V156.928L303.475 158.237L305.941 160.541" fill="#FEFFFA"/>
<path d="M219.027 105.062L308.398 156.928L270.173 179.146L180.457 127.493L219.027 105.062Z" fill="#FEFFFA"/>
<path d="M219.027 105.062L308.398 156.928L270.173 179.146L180.457 127.493L219.027 105.062Z" fill="#78A9F8"/>
<path d="M180.457 127.493V123.545L186.516 126.356L185.999 128.153" fill="#78A9F8"/>
<path d="M308.398 156.928V152.99L303.475 154.299L305.941 156.593" fill="#78A9F8"/>
<path d="M219.027 101.123L308.398 152.99L270.173 175.198L180.457 123.545L219.027 101.123Z" fill="#AECFFF"/>
<path d="M180.437 129.838L180.234 160.653L183.37 162.247L185.055 156.624V135.765V130.964" fill="#EDEFDF"/>
<path d="M186.75 134.182V160.298L183.37 162.247V130.964L186.75 134.182Z" fill="#FEFFFA"/>
<path d="M265.27 46.2118V95.216L248.147 84.7311V36.7723L265.27 46.2118Z" fill="#2388D2"/>
<path d="M276.963 68.6332V85.2589L236.454 61.5079V45.1664L276.963 68.6332Z" fill="#2388D2"/>
<path d="M160.857 25.8205L156.878 24.8969L112.848 50.2516L113.578 136.963L115.233 137.877" fill="#DD654A"/>
<path d="M160.857 25.8206L161.365 111.385L115.233 137.877V51.6219L160.857 25.8206Z" fill="#F8997C"/>
<path d="M159.233 30.4591V110.167L117.324 133.38V54.1492L159.233 30.4591Z" fill="#FDF2D6"/>
<path d="M142.8 65.2836L143.024 65.2227V65.8419L139.684 67.5268V66.9076L139.968 66.7046L140.243 66.5016C140.316 66.4439 140.384 66.3793 140.445 66.3088L140.527 66.1565V65.9941L140.466 65.8114L140.019 64.1976C140.012 64.1535 139.987 64.1141 139.951 64.0876C139.915 64.0611 139.871 64.0496 139.826 64.0555C139.713 64.0694 139.603 64.1038 139.502 64.157L138.06 64.8878C137.96 64.9328 137.873 65.0016 137.805 65.0884C137.738 65.1751 137.693 65.277 137.675 65.3851L137.37 67.07V67.2527V67.4557C137.37 67.8414 137.654 67.9023 138.213 67.6181V68.3083L135.908 69.4654V68.7549C136.355 68.4014 136.646 67.8882 136.72 67.3238L138.984 57.6508L139.908 57.3971L142.293 65.04C142.309 65.1161 142.352 65.184 142.413 65.2322C142.474 65.2803 142.55 65.3057 142.628 65.3039L142.8 65.2836ZM139.491 63.2536C139.654 63.1724 139.735 63.1115 139.725 63.0709C139.677 62.8267 139.612 62.5859 139.532 62.3503L138.822 60.1274L138.04 63.4465C137.989 63.6124 137.952 63.7821 137.928 63.954C137.928 64.0352 138.04 64.0149 138.243 63.954L139.451 63.345" fill="#494137"/>
<path d="M146.505 81.5237C146.584 81.5144 146.662 81.4974 146.738 81.4729V82.0921L143.399 83.777V83.1578L143.693 82.9548L143.967 82.7518C144.04 82.6931 144.108 82.6286 144.17 82.559L144.252 82.4067V82.2443L144.191 82.0515L143.744 80.4376C143.734 80.3934 143.708 80.3548 143.67 80.3301C143.632 80.3054 143.586 80.2966 143.541 80.3057C143.428 80.3196 143.318 80.354 143.216 80.4072L141.775 81.1278C141.677 81.1732 141.591 81.241 141.524 81.3256C141.457 81.4102 141.411 81.5093 141.389 81.615L141.085 83.3101V83.4826V83.6958C141.085 84.0815 141.369 84.1322 141.927 83.8582V84.5484L139.704 85.6649H139.623V84.995C140.073 84.6397 140.364 84.1221 140.435 83.5537L142.699 73.8807L143.622 73.6067L146.008 81.2496C146.026 81.331 146.073 81.4031 146.14 81.4526C146.199 81.4956 146.269 81.5203 146.343 81.5237C146.397 81.5296 146.451 81.5296 146.505 81.5237ZM143.206 79.4937C143.358 79.4125 143.44 79.3617 143.44 79.3211C143.392 79.0769 143.327 78.8361 143.247 78.6005L142.546 76.3776L141.785 79.6358C141.737 79.8018 141.703 79.9716 141.684 80.1433C141.684 80.2143 141.785 80.2143 141.988 80.1433L143.206 79.5343" fill="#494137"/>
<path d="M139.41 85.0965H139.562V85.7258L136.304 87.3701V86.7205L136.599 86.5175L136.873 86.3145C136.946 86.256 137.014 86.1915 137.076 86.1216L137.157 85.9694V85.807L137.096 85.6141L136.619 83.98C136.609 83.9357 136.582 83.8971 136.544 83.8724C136.506 83.8477 136.46 83.839 136.416 83.848C136.303 83.8581 136.193 83.889 136.091 83.9394L134.65 84.6702C134.551 84.7142 134.464 84.7815 134.397 84.8664C134.33 84.9512 134.284 85.0511 134.264 85.1574L133.96 86.8524V87.025V87.228C133.96 87.6137 134.244 87.6746 134.802 87.3904V88.0806L132.498 89.2377V88.5475C132.947 88.1922 133.239 87.6746 133.31 87.1062L135.574 77.4332L136.497 77.1592L138.882 84.8021C138.903 84.8825 138.949 84.9539 139.014 85.0051C139.074 85.0456 139.145 85.0669 139.217 85.066C139.28 85.086 139.345 85.0963 139.41 85.0965ZM136.111 83.0665C136.264 82.9853 136.355 82.9244 136.345 82.8838C136.293 82.6404 136.229 82.3998 136.152 82.1631L135.442 79.9403L134.69 83.1984C134.64 83.3645 134.603 83.5342 134.579 83.7059C134.579 83.777 134.68 83.777 134.883 83.7059L136.101 83.0969" fill="#494137"/>
<path d="M136.172 104.848L136.406 104.798V105.417L133.067 107.102V106.483L133.351 106.28L133.625 106.077C133.698 106.019 133.766 105.954 133.828 105.884L133.909 105.731V105.569L133.848 105.376L133.402 103.762C133.398 103.741 133.39 103.72 133.378 103.702C133.366 103.684 133.351 103.668 133.333 103.655C133.315 103.643 133.295 103.635 133.273 103.63C133.252 103.626 133.23 103.626 133.209 103.63C133.095 103.644 132.985 103.679 132.884 103.732L131.443 104.463C131.344 104.507 131.257 104.574 131.19 104.659C131.123 104.744 131.077 104.844 131.057 104.95L130.752 106.645V106.818V107.021C130.752 107.416 131.037 107.467 131.595 107.193V107.883L129.291 109.04V108.34C129.737 107.987 130.028 107.473 130.103 106.909L132.305 97.175L133.229 96.9111L135.614 104.554C135.63 104.631 135.672 104.7 135.733 104.75C135.794 104.8 135.87 104.828 135.949 104.828C136.022 104.846 136.097 104.853 136.172 104.848ZM132.864 102.869C133.026 102.788 133.107 102.727 133.097 102.686C133.049 102.442 132.985 102.201 132.904 101.966L132.194 99.743L131.443 103.001C131.393 103.167 131.355 103.337 131.331 103.509C131.331 103.58 131.443 103.57 131.646 103.509L132.853 102.9" fill="#494137"/>
<path d="M142.952 98.2814C143.045 98.6116 143.09 98.9535 143.084 99.2964C143.098 99.8015 143.029 100.305 142.881 100.788C142.756 101.199 142.564 101.587 142.313 101.935C142.078 102.252 141.797 102.532 141.481 102.768C141.161 103.003 140.822 103.211 140.466 103.387L138.75 104.219L136.852 105.143V104.514C137.106 104.426 137.328 104.266 137.49 104.053C137.653 103.84 137.749 103.583 137.766 103.316L137.705 96.3022C137.705 95.6729 137.37 95.5308 136.69 95.8454V95.206L140.1 93.4906C140.376 93.3059 140.686 93.1776 141.012 93.1132C141.338 93.0487 141.673 93.0494 141.998 93.1151C142.425 93.2572 142.638 93.7748 142.648 94.6579C142.667 95.2236 142.545 95.7854 142.293 96.292C142.036 96.7831 141.692 97.2233 141.278 97.5912C141.529 97.519 141.788 97.4814 142.049 97.4796C142.256 97.4824 142.456 97.5538 142.618 97.6826C142.782 97.8479 142.897 98.055 142.952 98.2814ZM141.085 101.875C141.406 100.994 141.469 100.039 141.268 99.1239C141.226 98.9284 141.109 98.757 140.943 98.6468C140.761 98.5723 140.557 98.5723 140.374 98.6468C140.09 98.7254 139.814 98.8342 139.552 98.9716C139.4 99.0427 139.329 99.2355 139.339 99.5502V102.737C139.339 102.9 139.4 102.981 139.522 103.011C139.737 103.004 139.947 102.941 140.131 102.829C140.541 102.632 140.874 102.303 141.075 101.895L141.085 101.875ZM139.329 95.1451V97.9972C139.329 98.2205 139.4 98.2916 139.552 98.2104C139.824 98.0783 140.08 97.9148 140.313 97.7232C140.502 97.5745 140.658 97.3877 140.77 97.1751C140.877 96.962 140.946 96.7319 140.973 96.495C140.993 96.2044 140.993 95.9128 140.973 95.6221C141.003 95.1959 140.933 94.7686 140.77 94.3737C140.638 94.1301 140.374 94.1199 139.989 94.3128C139.779 94.4036 139.59 94.5346 139.43 94.6985C139.32 94.8131 139.259 94.9658 139.258 95.1248" fill="#494137"/>
<path d="M146.86 89.9685C147.018 89.8907 147.181 89.8229 147.347 89.7655C147.517 89.7152 147.69 89.6779 147.865 89.6538C148.023 89.6279 148.184 89.6279 148.342 89.6538C148.486 89.6756 148.62 89.7391 148.728 89.8365C148.861 89.4065 149.098 89.016 149.418 88.6997C149.71 89.8051 149.84 90.947 149.804 92.0898L149.114 92.4349C149.052 91.7657 148.813 91.1248 148.423 90.5775C148.269 90.4338 148.07 90.3473 147.859 90.3326C147.649 90.3178 147.439 90.3756 147.266 90.4963C146.931 90.6666 146.65 90.9267 146.454 91.2474C146.238 91.6011 146.074 91.9839 145.967 92.3842C145.845 92.8391 145.766 93.3048 145.734 93.7747C145.688 94.2707 145.668 94.7687 145.673 95.2668C145.673 95.9367 145.673 96.5457 145.764 97.1039C145.805 97.5754 145.907 98.0395 146.069 98.4843C146.165 98.7902 146.367 99.0524 146.637 99.2253C146.785 99.2844 146.945 99.3078 147.103 99.2937C147.262 99.2796 147.415 99.2283 147.55 99.1441C148.058 98.8737 148.472 98.4562 148.738 97.9464C149.118 97.1926 149.391 96.3899 149.55 95.5611H149.976C149.892 96.0712 149.767 96.5736 149.601 97.0633C149.447 97.5178 149.25 97.9563 149.012 98.3727C148.8 98.7402 148.544 99.081 148.251 99.3877C147.989 99.6597 147.684 99.8861 147.347 100.058C146.886 100.327 146.359 100.46 145.825 100.443C145.627 100.426 145.436 100.368 145.261 100.274C145.087 100.179 144.933 100.051 144.81 99.8952C144.518 99.5095 144.32 99.0612 144.231 98.5858C144.101 97.9581 144.037 97.3186 144.039 96.6776C144.03 95.9341 144.078 95.1911 144.181 94.4548C144.266 93.7915 144.429 93.1408 144.668 92.5161C144.883 91.9522 145.185 91.4249 145.561 90.953C145.923 90.5404 146.365 90.2054 146.86 89.9685Z" fill="#494137"/>
<path d="M344.034 185.379C344.034 185.379 343.506 202.075 335.65 202.471C327.794 202.867 327.266 185.379 327.266 185.379" fill="#6DE1FC"/>
<path d="M344.034 185.379C344.034 185.379 343.506 202.075 335.65 202.471C327.794 202.867 327.266 185.379 327.266 185.379" fill="#2388D2"/>
<path d="M335.65 188.535C340.281 188.535 344.034 187.122 344.034 185.378C344.034 183.635 340.281 182.222 335.65 182.222C331.02 182.222 327.266 183.635 327.266 185.378C327.266 187.122 331.02 188.535 335.65 188.535Z" fill="#311E69"/>
<path d="M337.934 187.51C339.487 180.699 342.136 174.185 345.78 168.225C346.084 167.728 347.089 168.154 346.795 168.651C343.18 174.554 340.55 181.006 339.01 187.754C338.939 188.292 337.812 188.068 337.934 187.51Z" fill="#311E69"/>
<path d="M333.143 188.586C333.722 180.48 334.722 172.41 336.138 164.409C336.229 163.871 337.406 163.871 337.305 164.409C335.891 172.39 334.892 180.44 334.311 188.525L333.143 188.586Z" fill="#311E69"/>
<path d="M348.368 166.703C349.744 166.438 351.164 166.522 352.499 166.946C353.443 167.251 355.392 168.113 355.006 169.037C354.621 169.961 352.256 169.819 351.312 169.616C350.655 169.484 350.03 169.223 349.475 168.848C348.919 168.474 348.443 167.993 348.074 167.433C348.069 167.4 348.069 167.366 348.074 167.332C347.881 167.098 347.942 166.784 348.368 166.703Z" fill="#C3EA75"/>
<path d="M346.531 166.195C346.613 166.321 346.739 166.41 346.885 166.444C347.031 166.478 347.184 166.454 347.313 166.378C348.592 165.698 350.195 165.261 351.099 164.256C351.728 163.556 351.992 162.399 350.845 161.891C350.296 161.689 349.703 161.634 349.126 161.732C348.549 161.83 348.008 162.077 347.556 162.45C346.541 163.333 346.409 164.612 346.166 165.708C346.115 165.941 346.298 166.114 346.531 166.195ZM348.947 162.663V162.774C348.562 162.994 348.219 163.279 347.932 163.617C348.177 163.209 348.533 162.878 348.957 162.663H348.947Z" fill="#C3EA75"/>
<path d="M343.131 163.952C345.019 163.333 345.344 165.688 345.394 166.479C345.394 166.703 345.232 166.824 345.009 166.875C344.888 166.953 344.747 166.994 344.603 166.994C344.459 166.994 344.318 166.953 344.197 166.875C343.557 166.459 342.755 166.063 342.552 165.424C342.491 165.289 342.457 165.144 342.453 164.997C342.448 164.849 342.474 164.702 342.528 164.565C342.582 164.427 342.663 164.302 342.767 164.197C342.871 164.091 342.994 164.008 343.131 163.952Z" fill="#C3EA75"/>
<path d="M335.965 162.856C336.066 162.992 336.212 163.089 336.376 163.13C336.541 163.17 336.715 163.152 336.868 163.079C336.969 163.098 337.072 163.098 337.173 163.079C338.634 162.917 339.375 161.232 339.639 160.349C339.903 159.466 340.187 158.014 338.726 157.547C338.125 157.358 337.477 157.391 336.899 157.641C336.321 157.891 335.853 158.34 335.579 158.907C335.361 159.555 335.283 160.242 335.349 160.923C335.416 161.603 335.625 162.262 335.965 162.856ZM336.757 161.658C336.718 161.433 336.718 161.203 336.757 160.978C336.745 161.133 336.745 161.289 336.757 161.445V161.658Z" fill="#C3EA75"/>
<path d="M328.292 163.089C328.241 164.175 329.723 164.622 330.961 164.794C331.722 164.906 334.463 165.393 334.514 164.419C334.588 164.367 334.64 164.289 334.659 164.2C334.678 164.112 334.662 164.019 334.615 163.942C334.006 162.927 332.585 162.45 331.164 162.176C329.987 161.952 328.342 161.901 328.292 163.089ZM329.439 163.089C329.484 163.151 329.535 163.208 329.591 163.262C329.547 163.317 329.519 163.384 329.51 163.454C329.473 163.436 329.442 163.409 329.417 163.376C329.393 163.343 329.377 163.304 329.37 163.264C329.363 163.224 329.366 163.182 329.378 163.143C329.389 163.104 329.41 163.068 329.439 163.038V163.089Z" fill="#C3EA75"/>
<path d="M338.797 163.932C338.867 164.046 338.972 164.136 339.095 164.188C339.219 164.241 339.356 164.254 339.487 164.226C340.272 164.161 341.033 163.918 341.71 163.515C342.187 163.18 342.441 162.571 342.045 162.135C341.142 161.12 339.061 162.815 338.523 163.343C338.269 163.597 338.482 163.84 338.797 163.932ZM340.441 163.13H340.34L340.928 162.845C340.785 162.98 340.616 163.083 340.431 163.15L340.441 163.13Z" fill="#C3EA75"/>
<path d="M86.9044 93.4601C84.8034 103.874 76.9067 111.253 69.284 109.934C61.6614 108.614 57.1751 99.1136 59.2761 88.6997C61.3772 78.2858 69.2739 70.9068 76.8965 72.2263C84.5192 73.5458 89.0156 83.0563 86.9044 93.4601Z" fill="#56403D"/>
<path d="M88.5891 94.13C86.4881 104.544 78.5914 111.923 70.9687 110.603C63.3461 109.284 58.8699 99.7531 60.9608 89.3494C63.0517 78.9456 70.9586 71.5564 78.5812 72.8759C86.2039 74.1954 90.6902 83.6958 88.5891 94.13Z" fill="#FFDAC0"/>
<path d="M86.8841 93.8154C85.0368 102.95 78.1246 109.406 71.4358 108.249C64.7469 107.092 60.829 98.7686 62.6662 89.6437C64.5033 80.5189 71.4256 74.0533 78.1551 75.2003C84.8845 76.3472 88.7212 84.6905 86.8841 93.8154Z" fill="#2388D2"/>
<path d="M78.7539 89.6132L75.9931 91.6939L76.7137 81.8281C76.8355 80.1737 73.9123 79.9605 73.7905 81.615L72.8364 94.5765C72.8292 94.8297 72.9031 95.0785 73.0474 95.2867C73.1917 95.4949 73.3987 95.6515 73.6383 95.7336C73.8822 95.8691 74.1596 95.9324 74.4381 95.9163C74.7167 95.9001 74.9849 95.8051 75.2115 95.6423L80.6316 91.5823C82.1135 90.5064 80.185 88.5373 78.7539 89.6132Z" fill="#56403D"/>
<path d="M272.568 100.728C272.568 101.073 269.107 107.477 270.934 110.167C272.761 112.857 283.926 111.121 283.926 111.121" fill="#FBAE17"/>
<path d="M286.23 95.348C286.474 95.8758 289.61 104.239 293.101 107.477C296.593 110.715 299.638 108.959 299.963 114.014C300.288 119.069 296.177 121.647 298.471 124.164C300.765 126.681 299.232 133.299 292.32 134.608C285.408 135.918 277.866 118.287 277.876 117.13" fill="#FBAE17"/>
<path d="M256.957 132.213C256.957 132.213 253.405 139.937 251.74 142.008C250.076 144.078 246.726 147.631 247.142 148.25C247.537 148.676 248.027 149.002 248.572 149.201C249.118 149.401 249.702 149.468 250.279 149.397C251.74 149.295 254.247 144.697 254.034 145.428C253.821 146.159 253.09 150.148 253.933 149.407C254.775 148.666 254.867 145.012 255.658 143.966C256.45 142.921 263.9 132.213 263.9 132.213" fill="#FFD0B0"/>
<path d="M239.621 205.597L236.363 203.435C236.363 203.435 236.495 200.34 237.784 199.873C239.073 199.406 239.621 205.597 239.621 205.597Z" fill="#6B2215"/>
<path d="M236.292 186.566C236.292 186.566 232.131 199.893 231.511 200.593C230.892 201.294 223.615 206.785 222.884 208.033C222.153 209.282 229.157 209.363 231.877 209.048C234.597 208.734 237.226 207.749 237.449 206.775C237.672 205.8 237.287 200.603 238.241 200.847C239.195 201.091 239.611 205.587 239.611 205.587L242.108 204.572L244.909 186.119" fill="#6B2215"/>
<path d="M252.258 210.723L249 208.561C249 208.561 249.132 205.465 250.421 204.998C251.71 204.532 252.258 210.723 252.258 210.723Z" fill="#6B2215"/>
<path d="M248.929 191.682C248.929 191.682 244.767 205.009 244.148 205.709C243.529 206.409 236.251 211.901 235.521 213.149C234.79 214.397 241.793 214.479 244.514 214.164C247.234 213.849 249.863 212.865 250.086 211.89C250.309 210.916 249.924 205.719 250.878 205.963C251.832 206.206 252.248 210.703 252.248 210.703L254.745 209.688L257.546 191.235" fill="#6B2215"/>
<path d="M278.841 129.909C280.15 131.015 273.411 144.768 271.99 152.817C270.569 160.866 251.527 165.373 251.527 165.373L246.269 198.238C241.551 198.036 236.864 197.356 232.283 196.208C232.283 196.208 237.683 157.933 239.672 153.751C241.661 149.569 270.122 133.228 270.122 133.228" fill="#B7B3AE"/>
<path d="M283.753 132.406C285.063 133.512 289.194 142.556 285.124 154.259C282.444 161.973 265.595 168.357 265.595 168.357L257.475 199.984C253.61 201.633 249.272 201.796 245.295 200.441C245.295 200.441 248.188 164.52 250.177 160.338C252.166 156.157 273.603 140.536 273.603 140.536" fill="#B7B3AE"/>
<path d="M277.704 138.161C277.704 138.161 266.478 145.611 265.27 146.047C264.063 146.484 257.15 149.366 258.236 149.508C259.419 149.584 260.606 149.584 261.789 149.508C261.789 149.508 257.353 153.781 258.125 154.959C258.896 156.136 261.941 156.532 263.261 156.136C264.58 155.74 267.321 151.772 267.869 151.376C268.417 150.98 283.094 143.571 283.094 143.571" fill="#FFD0B0"/>
<path d="M283.611 109.213C280.176 107.791 276.435 107.263 272.741 107.68C270.935 107.865 269.23 108.602 267.858 109.791C266.102 111.426 265.392 113.851 264.438 116.024C262.99 119.093 261.378 122.081 259.606 124.976C258.12 127.805 256.423 130.52 254.531 133.096L260.155 137.318L268.65 127.402L281.307 133.938L270.041 139.693C269.097 141.429 277.318 146.697 277.318 146.697C277.318 146.697 289.945 145.398 292.543 132.69C296.319 114.633 283.632 109.223 283.611 109.213Z" fill="#63CEBC"/>
<path d="M268.336 122.763C268.336 122.763 267.93 134.233 268.599 135.491C269.269 136.75 281.348 142.008 281.348 142.008L288.93 132.619L268.336 122.763Z" fill="#63CEBC"/>
<path d="M272.619 97.8652C272.619 97.8652 271.929 108.015 276.039 109.325C280.15 110.634 282.627 105.61 282.627 105.61C282.627 105.61 283.845 98.8091 282.566 97.2968C281.287 95.7844 274.974 95.145 272.619 97.8652Z" fill="#FFD0B0"/>
<path d="M275.065 91.9376C274.047 92.4406 273.131 93.129 272.365 93.9676C271.785 94.56 271.329 95.2616 271.022 96.0317C270.716 96.8018 270.565 97.6251 270.579 98.4539C270.597 98.6581 270.662 98.8554 270.767 99.0312C270.873 99.2069 271.016 99.3566 271.188 99.469C271.525 99.6307 271.903 99.6906 272.274 99.6415L273.776 99.7227L277.237 99.9054C277.834 99.8744 278.433 99.905 279.024 99.9967C279.024 99.9967 281.612 105.975 280.901 108.228C280.901 108.228 284.302 107.589 285.976 102.656C287.184 99.2152 287.215 94.2214 283.713 92.0899C282.383 91.3929 280.908 91.0162 279.407 90.9898C277.906 90.9633 276.419 91.2879 275.065 91.9376Z" fill="#FBAE17"/>
<path d="M269.279 119.14C269.225 124.431 269.286 129.723 269.462 135.014C269.462 135.613 268.549 135.603 268.528 135.014C268.359 129.723 268.298 124.431 268.346 119.14C268.346 119.016 268.395 118.897 268.482 118.809C268.57 118.722 268.689 118.673 268.813 118.673C268.936 118.673 269.055 118.722 269.143 118.809C269.23 118.897 269.279 119.016 269.279 119.14Z" fill="#246D5F"/>
<path d="M270.274 139.328C273.313 137.988 275.997 135.957 278.111 133.397C280.226 130.836 281.713 127.817 282.454 124.58C282.586 123.991 283.469 124.245 283.358 124.834C282.592 128.184 281.059 131.311 278.878 133.967C276.697 136.624 273.929 138.737 270.792 140.14C270.193 140.384 269.726 139.572 270.274 139.328Z" fill="#246D5F"/>
<path d="M245.427 198.249C245.427 198.249 248.178 162.774 250.127 160.338C252.075 157.902 261.779 149.508 261.779 149.508C261.779 149.508 249.518 156.258 248.32 159.658C247.122 163.059 243.174 197.66 243.174 197.66L245.427 198.249Z" fill="#6D665E"/>
<path d="M167.587 95.2161L174.164 90.2324C174.164 90.2324 183.776 90.5268 183.492 91.1256C183.208 91.7245 190.475 106.797 190.475 106.797L189.044 139.429L177.138 146.595" fill="white"/>
<path d="M185.298 210.987C185.298 210.987 185.928 219.482 187.399 220.731C188.871 221.979 194.718 226.466 195.722 227.196C196.727 227.927 195.773 230.353 192.322 230.353C188.871 230.353 182.274 226.293 182.274 226.293L177.402 224.486C177.402 224.486 176.722 216.255 177.767 211.19C178.813 206.125 185.298 210.987 185.298 210.987Z" fill="#4A2B0F"/>
<path d="M168.825 224.72C168.825 224.72 172.256 241.285 170.002 242.564C167.749 243.842 162.654 241.092 161.882 238.25C161.111 235.408 161.395 218.549 161.882 218.447" fill="#4A2B0F"/>
<path d="M189.896 152.746L189.044 214.215C189.044 214.215 181.462 216.793 174.276 214.215L175.697 156.045L171.535 227.521C169.498 228.372 167.313 228.81 165.105 228.81C162.898 228.81 160.712 228.372 158.675 227.521L160.015 147.489L189.064 139.44L189.896 152.746Z" fill="#2388D2"/>
<path d="M179.3 89.9177C179.3 89.9177 187.278 87.6543 191.175 96.7588C196.463 109.091 196.727 179.634 196.727 179.634C194.31 181.986 191.295 183.632 188.009 184.394C188.009 184.394 187.328 111.588 186.75 106.99C185.796 99.3877 179.3 89.9177 179.3 89.9177Z" fill="#DBDBDB"/>
<path d="M185.39 90.4861C185.39 90.4861 189.886 95.8352 189.551 95.8352C189.216 95.8352 187.937 97.449 187.937 97.449L190.485 99.9053L187.227 134.415C187.227 134.415 189.592 109.375 179.29 90.0294C179.279 89.9888 183.715 89.461 185.39 90.4861Z" fill="#EEF3F7"/>
<path d="M171.626 91.9781C171.626 91.9781 163.638 94.7592 161.558 102.128C159.416 109.69 159.081 185.815 159.081 186.617C159.081 187.419 164.156 190.596 168.45 191.225C172.743 191.854 179.046 189.418 179.046 189.418L180.193 145.022C180.193 145.022 179.655 119.505 179.056 114.613C178.457 109.72 171.626 91.9781 171.626 91.9781Z" fill="#DBDBDB"/>
<path d="M171.626 91.7245L168.49 93.5819L169.688 100.281L173.585 100.799L172.317 104.534C172.317 104.534 176.488 113.74 177.209 115.303C177.929 116.866 179.919 132.152 179.919 132.152C179.919 132.152 179.452 115.597 178.904 113.496C178.356 111.395 175.453 98.0175 171.626 91.7245Z" fill="#EEF3F7"/>
<path d="M189.013 105.057C189.441 103.658 188.77 102.213 187.515 101.83C186.261 101.446 184.897 102.27 184.47 103.67C184.043 105.069 184.714 106.514 185.968 106.897C187.223 107.28 188.586 106.456 189.013 105.057Z" fill="#9E9E9E"/>
<path d="M190.16 119.363L193.439 105.742L210.511 100.058L203.315 129.675L186.638 133.959L190.16 119.363Z" fill="#63CEBC"/>
<path d="M183.36 122.55C183.36 122.55 187.176 117.262 188.11 116.856C189.044 116.45 191.246 115.577 191.987 115.841C192.728 116.105 191.744 117.982 191.744 117.982C191.744 117.982 199.509 116.917 200.199 117.587C200.889 118.257 199.062 120.713 197.458 122.134C195.855 123.555 185.278 127.28 185.278 127.28L183.36 122.55Z" fill="#FFB7A2"/>
<path d="M175.707 120.926C173.27 121.624 170.792 122.167 168.287 122.55C167.485 122.55 166.511 122.347 166.257 121.535C166.176 121.248 166.155 120.947 166.196 120.652C166.407 117.266 166.831 113.896 167.465 110.563C167.932 107.579 170.733 107.315 169.251 104.534C167.039 100.403 165.638 94.8202 164.004 97.3577C161.304 101.56 155.782 113.141 155.589 117.972C154.94 134.385 158.939 135.085 164.481 134.923C170.023 134.76 186.902 130.609 187.044 128.366C187.136 126.935 185.877 122.865 184.476 120.195C183.857 119.109 179.655 119.952 175.707 120.926Z" fill="#DBDBDB"/>
<path d="M186.161 102.727C186.384 102.575 185.978 88.4461 177.818 89.2987C169.657 90.1513 170.327 96.2007 170.632 99.3167L169.322 99.4994C169.322 99.4994 167.79 88.6998 178.214 88.6694C188.638 88.6389 186.943 103.6 186.943 103.6" fill="#9E9E9E"/>
<path d="M184.476 82.1429C185.215 81.7163 185.819 81.0923 186.223 80.3411C186.626 79.5899 186.812 78.7411 186.76 77.89C186.76 74.6522 181.746 72.2162 179.655 71.9218C176.996 71.5463 168.125 72.6526 167.587 79.2704C167.201 83.8785 170.358 92.0594 172.662 92.1203" fill="#4A2B0F"/>
<path d="M172.276 87.5426C172.503 86.5134 172.784 85.497 173.118 84.4976C173.233 84.1525 173.355 83.8142 173.484 83.4826C174.113 81.8485 175.077 82.3357 176.529 82.3357C177.669 82.3608 178.807 82.2449 179.919 81.9906C181.618 81.5496 183.246 80.8659 184.75 79.9606C184.974 83.5131 185.116 93.9371 179.34 94.8303C175.828 95.3784 173.91 93.9879 172.834 92.3233C172.641 90.6993 172.459 89.126 172.276 87.5426Z" fill="#F0B387"/>
<path d="M173.565 87.1265C173.565 87.1265 172.164 83.5841 171.099 85.3401C169.921 87.299 172.448 88.6693 172.448 88.6693" fill="#F0B387"/>
<path d="M185.891 86.5591C186.337 85.1008 185.707 83.6161 184.484 83.2428C183.262 82.8696 181.91 83.7492 181.465 85.2075C181.019 86.6657 181.649 88.1505 182.872 88.5237C184.094 88.897 185.446 88.0174 185.891 86.5591Z" stroke="#42210B" stroke-width="0.25375" stroke-miterlimit="10"/>
<path d="M179.648 88.0787C180.093 86.6204 179.463 85.1356 178.241 84.7624C177.018 84.3891 175.667 85.2687 175.221 86.727C174.776 88.1853 175.406 89.67 176.628 90.0433C177.851 90.4165 179.203 89.5369 179.648 88.0787Z" stroke="#42210B" stroke-width="0.25375" stroke-miterlimit="10"/>
<path d="M175.23 86.7307L170.632 83.6045" stroke="#42210B" stroke-width="0.25375" stroke-miterlimit="10"/>
<path d="M181.198 86.5784C181.198 86.5784 180.091 86.5784 179.787 86.9641" stroke="#42210B" stroke-width="0.25375" stroke-miterlimit="10"/>
<path d="M170.642 112.573C169.383 112.573 167.374 112.573 166.298 111.862C165.222 111.152 165.394 110.208 165.506 108.959C165.76 106.056 165.993 100.677 169.322 99.4994C172.225 98.4844 174.671 100.596 175.707 103.133C176.377 104.788 177.473 107.487 177.057 109.345C176.732 110.806 175.148 111.588 173.87 112.146C173.626 112.248 173.423 111.903 173.667 111.791C175.159 111.141 176.712 110.269 176.651 108.442C176.509 106.852 176.133 105.292 175.534 103.813C174.519 101.093 171.89 98.5656 168.937 100.159C166.521 101.458 166.247 106.066 165.973 108.442C165.79 109.994 165.597 110.999 167.323 111.761C168.401 112.085 169.528 112.219 170.652 112.156C170.916 112.156 170.916 112.573 170.652 112.562L170.642 112.573Z" fill="#4D4D4D"/>
<path d="M174.58 111.568C174.58 111.791 174.884 112.156 174.58 112.309C174.275 112.461 173.281 112.897 173.189 112.573C173.098 112.248 172.946 111.75 173.189 111.558C173.433 111.365 174.58 110.827 174.58 111.568Z" fill="#4A2B0F"/>
<path d="M171.18 112.268C171.18 112.481 171.352 112.908 171.017 112.989C170.682 113.07 169.627 113.283 169.607 112.989C169.586 112.694 169.546 112.136 169.82 111.974C170.094 111.811 171.342 111.547 171.18 112.268Z" fill="#4A2B0F"/>
<path d="M175.595 119.282C174.58 119.586 173.636 119.86 172.631 120.083C171.626 120.307 170.083 120.835 169.18 120.601C168.277 120.368 168.571 118.825 168.632 118.013C168.732 116.775 168.908 115.545 169.16 114.328C169.292 113.689 168.307 113.415 168.145 114.054C167.834 115.537 167.63 117.039 167.536 118.551C167.536 119.424 167.17 120.804 168.033 121.383C168.896 121.961 169.86 121.535 170.652 121.383C172.401 121.139 174.126 120.745 175.808 120.205C176.519 120.063 176.255 119.079 175.595 119.282Z" fill="#9E9E9E"/>
<defs>
<linearGradient id="paint0_linear_135_1351" x1="147.49" y1="250.521" x2="184.344" y2="218.569" gradientUnits="userSpaceOnUse">
<stop stop-color="white" stop-opacity="0"/>
<stop offset="1" stop-color="#F15A24"/>
</linearGradient>
<linearGradient id="paint1_linear_135_1351" x1="18522.7" y1="9507.52" x2="20042.1" y2="7544.75" gradientUnits="userSpaceOnUse">
<stop stop-color="white" stop-opacity="0"/>
<stop offset="1" stop-color="#F15A24"/>
</linearGradient>
<linearGradient id="paint2_linear_135_1351" x1="32129.8" y1="17305.6" x2="32986.1" y2="14178" gradientUnits="userSpaceOnUse">
<stop stop-color="white" stop-opacity="0"/>
<stop offset="1" stop-color="#F15A24"/>
</linearGradient>
</defs>
</svg>
