<svg width="230" height="173" viewBox="0 0 230 173" fill="none" xmlns="http://www.w3.org/2000/svg">
<g clip-path="url(#clip0_135_554)">
<path opacity="0.18" d="M178.812 145.378C174.275 152.28 167.919 157.835 160.947 162.296L159.644 163.116C154.461 166.287 148.951 168.947 143.026 170.347C136.89 171.797 130.504 171.847 124.213 171.917C112.643 172.017 101.023 171.782 89.4936 172.618C80.3829 173.283 72.4643 168.307 66.4539 161.676C66.2035 161.401 65.9531 161.116 65.7176 160.836C60.3434 154.62 56.627 147.154 53.136 139.713C48.8336 130.551 44.7215 121.055 43.9101 110.978C43.2439 102.712 44.8267 94.4359 44.9519 86.1447C45.1071 75.8481 43.0135 65.5316 44.1805 55.2951C45.1823 46.3387 48.6883 37.7925 53.1961 29.9813C57.203 23.0053 62.0714 16.4243 68.3372 11.3835C75.6767 5.58301 84.4748 1.91325 93.766 0.776945C115.043 -1.95846 137.461 8.99317 148.34 27.4959C158.738 45.1536 158.628 67.2719 167.809 85.5896C173.659 97.2613 183.285 107.508 185.073 120.435C186.275 129.096 183.636 138.052 178.812 145.378Z" fill="#0000FF"/>
<path opacity="0.54" d="M160.942 162.296L159.64 163.116C154.461 166.287 148.951 168.947 143.026 170.347C136.89 171.797 130.504 171.847 124.214 171.917C112.644 172.017 101.024 171.782 89.4937 172.618C80.383 173.283 72.4644 168.307 66.454 161.676C66.2036 161.401 65.9532 161.116 65.7178 160.836C76.3511 157.505 92.8094 155.365 111.296 155.365C132.328 155.365 150.759 158.14 160.942 162.296Z" fill="#0000FF"/>
<path d="M118.198 151.579L118.699 156.52C118.699 156.52 116.806 159.381 114.331 159.566C111.857 159.751 111.016 158.566 111.016 158.566L111.421 151.299" fill="#F7AD7E"/>
<path d="M110.991 158.566L111.156 155.65L118.404 153.7L118.674 156.52C118.674 156.52 116.781 159.381 114.306 159.566C111.832 159.751 110.991 158.566 110.991 158.566Z" fill="white"/>
<path d="M95.0883 150.514L94.5574 157.155C94.5574 157.155 96.5007 160.096 99.0401 160.286C101.579 160.476 102.446 159.256 102.446 159.256L102.03 151.794" fill="#F7AD7E"/>
<path d="M102.446 159.276L102.281 156.275L94.8328 154.275L94.5574 157.165C94.5574 157.165 96.5007 160.106 99.0401 160.296C101.579 160.486 102.446 159.276 102.446 159.276Z" fill="white"/>
<path d="M92.1933 87.2349C92.1933 87.2349 91.7475 94.466 92.8594 115.899C93.9713 137.332 94.3019 150.644 94.3019 150.644C94.3019 150.644 95.3988 153.185 99.0952 153.235C102.792 153.285 103.042 151.735 103.042 151.735L106.653 96.7864L110.425 152.86C110.425 152.86 115.263 153.73 118.724 151.82C121.178 150.459 118.178 87.1699 118.178 87.1699C118.178 87.1699 106.318 93.6759 92.1933 87.2349Z" fill="#3F3D56"/>
<path d="M101.129 41.188C101.129 41.188 91.3019 45.9287 91.0765 47.4989C90.8511 49.0692 92.1935 87.2499 92.1935 87.2499C92.1935 87.2499 95.3789 91.3805 105.151 91.3805C115.168 91.3805 117.737 88.525 118.173 87.1948C118.609 85.8646 120.217 47.794 119.996 46.1887C119.776 44.5835 110.71 41.253 110.71 41.253L101.129 41.188Z" fill="#F3FCFF"/>
<path d="M112.263 55.9252L111.386 55.8002C111.707 53.5048 112.313 48.9191 112.313 48.009C112.313 47.0989 111.847 43.1133 109.678 41.133C109.213 40.703 108.66 40.3788 108.058 40.1828C107.455 39.9868 106.817 39.9237 106.187 39.9978C100.953 40.4579 99.6411 43.9134 99.5559 44.1534C99.23 45.4476 98.9825 46.7601 98.8146 48.084H97.9131C98.0821 46.6823 98.3397 45.2926 98.6844 43.9234V43.8934C98.7395 43.7184 100.112 39.6278 106.097 39.1027C106.848 39.0158 107.608 39.092 108.327 39.3259C109.045 39.5598 109.704 39.9459 110.259 40.4579C112.689 42.6832 113.184 46.9588 113.184 47.999C113.194 49.2092 112.298 55.6551 112.263 55.9252Z" fill="#0000FF"/>
<path d="M112.263 55.9252L111.386 55.8002C111.707 53.5048 112.313 48.9191 112.313 48.009C112.313 47.0989 111.847 43.1133 109.678 41.133C109.213 40.703 108.66 40.3788 108.058 40.1828C107.455 39.9868 106.817 39.9237 106.187 39.9978C100.953 40.4579 99.6411 43.9134 99.5559 44.1534C99.23 45.4476 98.9825 46.7601 98.8146 48.084H97.9131C98.0821 46.6823 98.3397 45.2926 98.6844 43.9234V43.8934C98.7395 43.7184 100.112 39.6278 106.097 39.1027C106.848 39.0158 107.608 39.092 108.327 39.3259C109.045 39.5598 109.704 39.9459 110.259 40.4579C112.689 42.6832 113.184 46.9588 113.184 47.999C113.194 49.2092 112.298 55.6551 112.263 55.9252Z" fill="url(#paint0_linear_135_554)"/>
<path d="M111.897 88.6401L112.138 111.108L122.37 110.093L118.443 74.448L111.897 88.6401Z" fill="#F3FCFF"/>
<path d="M101.72 41.168L101.6 92.0055C105.048 93.0452 108.765 92.7229 111.982 91.1054L109.333 41.168L105.496 42.0681L101.72 41.168Z" fill="#0000FF"/>
<path d="M101.72 41.168L101.6 92.0055C105.048 93.0452 108.765 92.7229 111.982 91.1054L109.333 41.168L105.496 42.0681L101.72 41.168Z" fill="#0000FF"/>
<path d="M101.785 35.4272C101.785 35.4272 101.725 38.8527 101.755 41.3581C101.785 43.2283 102.331 46.8139 105.717 46.8139C109.102 46.8139 109.498 42.2432 109.438 41.3581C109.534 40.0263 109.534 38.6893 109.438 37.3575C109.218 35.1971 101.975 33.9119 101.785 35.4272Z" fill="#F7AD7E"/>
<path d="M101.805 39.3627C101.805 39.3627 102.196 43.6984 104.96 43.1383C106.065 42.9429 107.083 42.4098 107.871 41.6126C108.66 40.8153 109.181 39.7933 109.363 38.6876C109.468 38.2113 109.445 37.7157 109.296 37.2512C109.148 36.7866 108.879 36.3695 108.517 36.0422L101.805 39.3627Z" fill="url(#paint1_linear_135_554)"/>
<path d="M111.216 35.6922C110.149 38.8227 107.284 40.763 105.276 40.948C103.268 41.133 101.074 39.3028 100.192 37.0224C99.3107 34.7421 99.1905 25.9858 99.1905 25.9858C99.1631 25.4035 99.2783 24.8233 99.5261 24.2955C99.8066 23.6604 100.317 21.7451 101.029 21.1901C104.219 20.3593 107.579 20.432 110.73 21.4001C111.397 21.9802 111.732 23.8305 111.882 24.1705C111.951 24.3782 111.997 24.5929 112.018 24.8106C112.273 26.9259 112.153 32.9518 111.216 35.6922Z" fill="#F7AD7E"/>
<path d="M99.1003 28.3261C98.8922 28.1927 98.642 28.1408 98.3978 28.1805C98.1537 28.2202 97.9329 28.3487 97.778 28.5412C97.653 28.7954 97.6027 29.0797 97.6327 29.3613C97.636 29.646 97.6594 29.9301 97.7029 30.2114C97.8698 30.968 98.2484 31.6616 98.7947 32.2117C98.9216 32.3591 99.0723 32.4841 99.2405 32.5818C99.3258 32.6299 99.4202 32.6597 99.5177 32.6691C99.6151 32.6786 99.7135 32.6676 99.8065 32.6368C99.952 32.5566 100.074 32.4404 100.162 32.2995C100.25 32.1585 100.3 31.9974 100.307 31.8317C100.422 31.1321 100.358 30.4149 100.122 29.7464C99.9439 29.1752 99.5855 28.677 99.1003 28.3261Z" fill="#F7AD7E"/>
<path d="M112.388 28.216C112.596 28.082 112.845 28.0293 113.09 28.0681C113.334 28.1069 113.555 28.2344 113.71 28.4261C113.839 28.6808 113.89 28.9679 113.856 29.2512C113.858 29.5344 113.834 29.8173 113.786 30.0963C113.619 30.853 113.24 31.5467 112.694 32.0966C112.567 32.2437 112.416 32.3688 112.248 32.4667C112.163 32.5148 112.068 32.5446 111.971 32.554C111.873 32.5635 111.775 32.5525 111.682 32.5217C111.536 32.4418 111.413 32.3258 111.326 32.1847C111.238 32.0437 111.188 31.8824 111.181 31.7166C111.065 31.0157 111.127 30.2969 111.361 29.6262C111.54 29.0569 111.901 28.5617 112.388 28.216Z" fill="#F7AD7E"/>
<path d="M101.575 88.6401L101.239 111.108L86.6838 110.093L92.2685 74.448L101.575 88.6401Z" fill="#F3FCFF"/>
<path d="M91.4821 67.6369L95.7695 58.2855L93.6258 110.293L86.6838 110.123C86.6838 110.123 92.1282 82.5291 91.4821 67.6369Z" fill="url(#paint2_linear_135_554)"/>
<path d="M119.26 66.5018L114.973 57.1554L114.832 110.768L122.37 110.093C122.37 110.093 118.614 81.404 119.26 66.5018Z" fill="url(#paint3_linear_135_554)"/>
<path d="M91.2816 47.1189C91.2816 47.1189 83.959 64.9115 83.1276 68.002C82.2961 71.0925 84.8806 80.4189 85.8973 78.8186C89.0177 73.8979 92.0679 66.2117 92.0679 66.2117L91.2816 47.1189Z" fill="#F3FCFF"/>
<path d="M119.37 45.1337C119.37 45.1337 126.688 62.9313 127.524 66.0168C128.361 69.1022 125.766 78.4336 124.754 76.8334C121.629 71.9127 118.584 64.2265 118.584 64.2265L119.37 45.1337Z" fill="#F3FCFF"/>
<path d="M120.868 69.3822C120.662 69.5922 114.832 87.0098 114.832 87.0098C114.832 87.0098 118.599 87.0098 121.374 87.2349C121.374 87.2349 127.098 73.9179 127.334 72.7327C127.569 71.5475 129.307 65.1016 125.436 64.3265C121.564 63.5513 120.868 69.3822 120.868 69.3822Z" fill="#F3FCFF"/>
<path d="M89.7842 71.3676C89.9845 71.5776 95.7945 88.9952 95.7945 88.9952C95.7945 88.9952 92.023 88.9952 89.2483 89.2202C89.2483 89.2202 83.5284 75.9032 83.288 74.718C83.0476 73.5329 81.3196 67.0869 85.1863 66.3118C89.0529 65.5367 89.7842 71.3676 89.7842 71.3676Z" fill="#F3FCFF"/>
<path d="M112.098 28.5462C112.098 28.4062 112.047 28.2661 112.017 28.1261C111.835 27.3767 111.585 26.6453 111.271 25.9408C110.77 24.7456 110.304 23.5554 109.824 22.3603C109.748 22.1702 109.668 21.9852 109.593 21.7952V21.7602C109.598 21.7678 109.6 21.7764 109.6 21.7852C109.6 21.794 109.598 21.8026 109.593 21.8102C109.514 21.8928 109.416 21.9547 109.308 21.9902C108.655 22.2348 107.986 22.4304 107.304 22.5753C106.412 22.6951 105.505 22.6304 104.64 22.3853C103.893 22.1702 103.137 21.5351 102.346 21.5701H102.226C101.821 21.5883 101.435 21.7441 101.132 22.0115C100.828 22.279 100.626 22.642 100.558 23.0404C100.399 24.9759 99.9814 26.8815 99.3155 28.7062C98.464 28.1311 98.3739 26.9909 98.3689 26.0058C98.3639 25.0207 98.3689 23.9655 98.3689 22.9403C98.3326 22.4459 98.3886 21.9491 98.5342 21.4751C98.6132 21.2296 98.7543 21.0086 98.9438 20.8335C99.1333 20.6583 99.3648 20.5348 99.616 20.475C100.027 20.405 100.498 20.54 100.848 20.315C100.98 20.195 101.086 20.0492 101.159 19.8866C101.233 19.724 101.272 19.5481 101.274 19.3698C101.338 18.6431 101.607 17.9494 102.05 17.3695C103.022 16.2243 104.875 16.1493 106.343 16.6294C107.81 17.1095 109.077 18.0146 110.515 18.5697C111.517 18.9447 112.608 19.1998 113.234 19.9999C113.518 20.451 113.689 20.964 113.73 21.4951C113.945 22.7197 113.912 23.9749 113.631 25.1862C113.351 26.3975 112.829 27.5401 112.098 28.5462Z" fill="#3F3D56"/>
<path d="M112.413 27.5859C112.322 27.7923 112.187 27.9766 112.017 28.126C111.835 27.3766 111.585 26.6452 111.271 25.9407C110.714 24.5605 110.154 23.1786 109.593 21.7951C109.92 21.6 110.28 21.4661 110.655 21.4C110.904 21.3549 111.159 21.3642 111.404 21.4273C111.649 21.4903 111.877 21.6055 112.073 21.7651C112.359 22.0569 112.556 22.4249 112.639 22.8252C112.786 23.4816 112.855 24.153 112.844 24.8255C112.938 25.7673 112.79 26.7175 112.413 27.5859Z" fill="url(#paint4_linear_135_554)"/>
<path d="M111.597 21.2C110.943 21.481 110.343 21.8736 109.824 22.3602C109.749 22.1702 109.668 21.9851 109.593 21.7951V21.7601C109.598 21.7677 109.6 21.7763 109.6 21.7851C109.6 21.7939 109.598 21.8025 109.593 21.8101C109.514 21.8928 109.416 21.9546 109.308 21.9901C108.656 22.2348 107.986 22.4303 107.304 22.5752C106.412 22.695 105.505 22.6303 104.64 22.3852C103.893 22.1702 103.137 21.5351 102.346 21.5701H102.226C102.266 21.45 102.316 21.32 102.361 21.18C102.741 19.9498 102.992 18.8847 104.404 18.4996C105.241 18.2951 106.123 18.3761 106.909 18.7296C107.665 19.0497 108.361 19.5498 109.173 19.6798C109.661 19.6938 110.148 19.7541 110.625 19.8598C110.894 19.9736 111.127 20.1586 111.298 20.3948C111.469 20.631 111.572 20.9094 111.597 21.2Z" fill="url(#paint5_linear_135_554)"/>
<path d="M90.6206 89.1451L91.2968 92.0155L96.4557 91.7655L95.1033 88.9751L90.6206 89.1451Z" fill="#F7AD7E"/>
<path d="M115.789 86.9498L114.266 90.6654L119.175 90.9504L119.796 87.1199L115.789 86.9498Z" fill="#F7AD7E"/>
<path d="M98.1937 91.6805H90.24V93.0908H98.1937V91.6805Z" fill="#F3FCFF"/>
<path d="M120.111 90.6904H112.799V92.0156H120.111V90.6904Z" fill="#F3FCFF"/>
<path d="M101.164 58.0605H98.9849V57.1604H100.407C100.778 54.775 101.089 49.5242 98.8146 48.6241C98.5893 48.5239 98.3368 48.5025 98.0977 48.5633C97.8587 48.6241 97.6472 48.7636 97.4974 48.9591C95.9647 50.5944 95.7143 55.5301 95.9547 56.1502C96.0673 56.2671 96.204 56.3581 96.3554 56.4168C96.5067 56.4756 96.6691 56.5006 96.8312 56.4903L96.9665 57.3804C96.6513 57.4143 96.3327 57.373 96.0366 57.26C95.7406 57.147 95.4756 56.9654 95.2635 56.7303C94.5773 55.9752 95.0882 50.8044 96.5107 48.7541C97.2169 47.754 98.1535 47.3939 99.1502 47.789C102.721 49.2042 101.294 57.3454 101.229 57.6905L101.164 58.0605Z" fill="#0000FF"/>
<path d="M101.164 58.0605H98.9849V57.1604H100.407C100.778 54.775 101.089 49.5242 98.8146 48.6241C98.5893 48.5239 98.3368 48.5025 98.0977 48.5633C97.8587 48.6241 97.6472 48.7636 97.4974 48.9591C95.9647 50.5944 95.7143 55.5301 95.9547 56.1502C96.0673 56.2671 96.204 56.3581 96.3554 56.4168C96.5067 56.4756 96.6691 56.5006 96.8312 56.4903L96.9665 57.3804C96.6513 57.4143 96.3327 57.373 96.0366 57.26C95.7406 57.147 95.4756 56.9654 95.2635 56.7303C94.5773 55.9752 95.0882 50.8044 96.5107 48.7541C97.2169 47.754 98.1535 47.3939 99.1502 47.789C102.721 49.2042 101.294 57.3454 101.229 57.6905L101.164 58.0605Z" fill="url(#paint6_linear_135_554)"/>
<path d="M97.282 57.0187C97.3203 56.6201 97.1103 56.2738 96.8129 56.2453C96.5155 56.2168 96.2434 56.5169 96.2051 56.9155C96.1668 57.3142 96.3768 57.6604 96.6742 57.6889C96.9716 57.7174 97.2437 57.4173 97.282 57.0187Z" fill="#0000FF"/>
<path d="M99.4221 57.6652C99.4604 57.2665 99.2504 56.9203 98.953 56.8918C98.6557 56.8633 98.3835 57.1634 98.3452 57.562C98.3069 57.9607 98.517 58.3069 98.8143 58.3354C99.1117 58.3639 99.3838 58.0638 99.4221 57.6652Z" fill="#0000FF"/>
<path d="M97.282 57.0187C97.3203 56.6201 97.1103 56.2738 96.8129 56.2453C96.5155 56.2168 96.2434 56.5169 96.2051 56.9155C96.1668 57.3142 96.3768 57.6604 96.6742 57.6889C96.9716 57.7174 97.2437 57.4173 97.282 57.0187Z" fill="url(#paint7_linear_135_554)"/>
<path d="M99.4221 57.6652C99.4604 57.2665 99.2504 56.9203 98.953 56.8918C98.6557 56.8633 98.3835 57.1634 98.3452 57.562C98.3069 57.9607 98.517 58.3069 98.8143 58.3354C99.1117 58.3639 99.3838 58.0638 99.4221 57.6652Z" fill="url(#paint8_linear_135_554)"/>
<path d="M111.927 58.1056C112.832 58.1056 113.565 57.3734 113.565 56.4703C113.565 55.5672 112.832 54.8351 111.927 54.8351C111.023 54.8351 110.29 55.5672 110.29 56.4703C110.29 57.3734 111.023 58.1056 111.927 58.1056Z" fill="#0000FF"/>
<path d="M112.193 57.2604C112.835 57.2604 113.355 56.741 113.355 56.1002C113.355 55.4595 112.835 54.9401 112.193 54.9401C111.551 54.9401 111.031 55.4595 111.031 56.1002C111.031 56.741 111.551 57.2604 112.193 57.2604Z" fill="url(#paint9_linear_135_554)"/>
<path d="M112.253 56.7753C112.646 56.7753 112.964 56.4574 112.964 56.0652C112.964 55.673 112.646 55.3551 112.253 55.3551C111.86 55.3551 111.542 55.673 111.542 56.0652C111.542 56.4574 111.86 56.7753 112.253 56.7753Z" fill="#F3FCFF"/>
<path d="M111.161 56.6254L110.44 57.1554C110.44 57.1554 110.84 57.8506 111.246 57.9556L111.747 57.1554C111.747 57.1554 111.386 57.1554 111.161 56.6254Z" fill="url(#paint10_linear_135_554)"/>
<path d="M125.496 161.016C125.906 161.266 126.382 161.631 126.352 162.156C126.326 162.385 126.236 162.601 126.092 162.781C125.165 164.046 120.081 163.651 118.629 163.636C115.328 163.601 115.463 163.806 112.208 163.191C111.944 163.162 111.692 163.066 111.477 162.911C111.161 162.574 110.983 162.132 110.976 161.671C110.86 160.59 110.886 159.5 111.051 158.426C111.052 158.37 111.065 158.315 111.088 158.264C111.111 158.213 111.145 158.168 111.186 158.13C111.228 158.111 111.273 158.101 111.319 158.101C111.365 158.101 111.41 158.111 111.452 158.13C111.968 158.349 112.505 158.517 113.054 158.631C113.956 158.729 114.865 158.521 115.634 158.04C116.032 157.806 116.41 157.54 116.766 157.245C117.011 157.05 117.492 156.43 117.792 156.4C118.093 156.37 118.654 156.87 118.939 157.04L120.297 157.86L125.496 161.016Z" fill="#3F3D56"/>
<path d="M98.7947 158.556C97.5829 158.165 96.4668 157.524 95.5191 156.675C95.3412 156.496 95.1118 156.378 94.863 156.335C94.7394 156.336 94.6172 156.36 94.5023 156.405C92.2167 157.139 90.0441 158.186 88.0462 159.516C87.5153 159.861 86.9293 160.371 86.9744 161.061C87.0245 161.861 87.8559 162.241 88.5521 162.416C92.5753 163.432 96.7569 163.665 100.868 163.101C101.229 163.079 101.576 162.956 101.87 162.746C102.205 162.387 102.406 161.925 102.441 161.436C102.616 160.371 102.691 158.886 102.236 157.905C101.744 158.257 101.181 158.497 100.587 158.609C99.9928 158.722 99.3811 158.703 98.7947 158.556Z" fill="#3F3D56"/>
<path d="M101.895 41.7581C101.895 41.7581 103.898 46.1437 104.995 46.6988L102.491 48.359L101.75 44.1134L101.895 41.7581Z" fill="#0000FF"/>
<path d="M109.383 41.8031C109.383 41.8031 107.6 46.6038 105.01 46.6988L107.66 49.1292L109.568 45.6287L109.383 41.8031Z" fill="#0000FF"/>
<path d="M101.895 41.7581C101.895 41.7581 103.898 46.1437 104.995 46.6988L102.491 48.359L101.75 44.1134L101.895 41.7581Z" fill="url(#paint11_linear_135_554)"/>
<path d="M109.383 41.8031C109.383 41.8031 107.6 46.6038 105.01 46.6988L107.66 49.1292L109.568 45.6287L109.383 41.8031Z" fill="url(#paint12_linear_135_554)"/>
<path d="M103.468 47.574L104.344 49.0492L103.698 80.3939L106.473 84.2745L108.321 77.8085L105.732 49.0942L106.473 47.989L104.995 46.6938L103.468 47.574Z" fill="#3F3D56"/>
</g>
<defs>
<linearGradient id="paint0_linear_135_554" x1="104.895" y1="54.1199" x2="107.257" y2="32.8859" gradientUnits="userSpaceOnUse">
<stop offset="0.02" stop-color="white" stop-opacity="0"/>
<stop offset="0.39" stop-color="white" stop-opacity="0.39"/>
<stop offset="1" stop-color="white"/>
</linearGradient>
<linearGradient id="paint1_linear_135_554" x1="106.388" y1="29.5113" x2="105.04" y2="45.619" gradientUnits="userSpaceOnUse">
<stop offset="0.01"/>
<stop offset="0.83" stop-opacity="0.07"/>
<stop offset="1" stop-opacity="0"/>
</linearGradient>
<linearGradient id="paint2_linear_135_554" x1="779.738" y1="7789.76" x2="1825.84" y2="7832.06" gradientUnits="userSpaceOnUse">
<stop offset="0.01"/>
<stop offset="0.83" stop-opacity="0.07"/>
<stop offset="1" stop-opacity="0"/>
</linearGradient>
<linearGradient id="paint3_linear_135_554" x1="-46560" y1="7716.85" x2="-47620.8" y2="7751.37" gradientUnits="userSpaceOnUse">
<stop offset="0.01"/>
<stop offset="0.83" stop-opacity="0.07"/>
<stop offset="1" stop-opacity="0"/>
</linearGradient>
<linearGradient id="paint4_linear_135_554" x1="775.152" y1="362.52" x2="796.461" y2="362.52" gradientUnits="userSpaceOnUse">
<stop offset="0.01"/>
<stop offset="0.83" stop-opacity="0.07"/>
<stop offset="1" stop-opacity="0"/>
</linearGradient>
<linearGradient id="paint5_linear_135_554" x1="1860.53" y1="196.829" x2="2036.62" y2="196.829" gradientUnits="userSpaceOnUse">
<stop offset="0.01"/>
<stop offset="0.83" stop-opacity="0.07"/>
<stop offset="1" stop-opacity="0"/>
</linearGradient>
<linearGradient id="paint6_linear_135_554" x1="1282.69" y1="1258.3" x2="1277.09" y2="928.39" gradientUnits="userSpaceOnUse">
<stop offset="0.02" stop-color="white" stop-opacity="0"/>
<stop offset="0.39" stop-color="white" stop-opacity="0.39"/>
<stop offset="1" stop-color="white"/>
</linearGradient>
<linearGradient id="paint7_linear_135_554" x1="351.182" y1="180.568" x2="354.334" y2="180.568" gradientUnits="userSpaceOnUse">
<stop offset="0.01"/>
<stop offset="0.83" stop-opacity="0.07"/>
<stop offset="1" stop-opacity="0"/>
</linearGradient>
<linearGradient id="paint8_linear_135_554" x1="359.539" y1="182.605" x2="362.691" y2="182.605" gradientUnits="userSpaceOnUse">
<stop offset="0.01"/>
<stop offset="0.83" stop-opacity="0.07"/>
<stop offset="1" stop-opacity="0"/>
</linearGradient>
<linearGradient id="paint9_linear_135_554" x1="430.719" y1="303.262" x2="426.664" y2="323.011" gradientUnits="userSpaceOnUse">
<stop offset="0.01"/>
<stop offset="0.83" stop-opacity="0.07"/>
<stop offset="1" stop-opacity="0"/>
</linearGradient>
<linearGradient id="paint10_linear_135_554" x1="380" y1="198.159" x2="378.281" y2="217.482" gradientUnits="userSpaceOnUse">
<stop offset="0.01"/>
<stop offset="0.83" stop-opacity="0.07"/>
<stop offset="1" stop-opacity="0"/>
</linearGradient>
<linearGradient id="paint11_linear_135_554" x1="720.814" y1="588.122" x2="691.863" y2="747.473" gradientUnits="userSpaceOnUse">
<stop offset="0.02" stop-color="white" stop-opacity="0"/>
<stop offset="0.39" stop-color="white" stop-opacity="0.39"/>
<stop offset="1" stop-color="white"/>
</linearGradient>
<linearGradient id="paint12_linear_135_554" x1="1010.52" y1="653.386" x2="984.816" y2="832.389" gradientUnits="userSpaceOnUse">
<stop offset="0.02" stop-color="white" stop-opacity="0"/>
<stop offset="0.39" stop-color="white" stop-opacity="0.39"/>
<stop offset="1" stop-color="white"/>
</linearGradient>
<clipPath id="clip0_135_554">
<rect width="228.995" height="172.321" fill="white" transform="translate(0.0593262 0.356934)"/>
</clipPath>
</defs>
</svg>
