<svg width="263" height="173" viewBox="0 0 263 173" fill="none" xmlns="http://www.w3.org/2000/svg">
<path d="M137.713 93.9375H103.204V104.136H137.713V93.9375Z" fill="#E6E6E6"/>
<path opacity="0.45" d="M137.713 170.379C190.969 170.379 234.141 165.948 234.141 160.482C234.141 155.016 190.969 150.585 137.713 150.585C84.4567 150.585 41.2842 155.016 41.2842 160.482C41.2842 165.948 84.4567 170.379 137.713 170.379Z" fill="#E6E6E6"/>
<path d="M155.642 108.665H62.8408V157.14H155.642V108.665Z" fill="#E6E6E6"/>
<path d="M160.815 103.336H57.6611V108.665H160.815V103.336Z" fill="#C9C9C9"/>
<path d="M97.5985 157.979C97.5985 157.979 99.0325 160.364 101.39 160.102C103.747 159.84 104.808 161.983 102.837 162.992C100.866 164.002 94.0166 162.337 94.0166 162.337V158.096L97.5985 157.979Z" fill="#2388D2"/>
<path d="M66.442 157.979C66.442 157.979 65.008 160.364 62.6506 160.102C60.2933 159.84 59.2259 161.983 61.1969 162.992C63.1679 164.002 70.9603 162.068 70.9603 162.068L70.0239 158.096L66.442 157.979Z" fill="#2388D2"/>
<path d="M92.6022 105.394H58.3486L64.5039 158.031H72.3225C72.3225 158.031 69.5526 120.567 73.4226 114.406V114.373C73.7111 113.946 74.0947 113.591 74.5433 113.337C74.9918 113.083 75.4932 112.937 76.0078 112.91C76.5224 112.882 77.0364 112.975 77.5093 113.18C77.9821 113.385 78.4011 113.697 78.7331 114.092C87.9006 124.808 91.489 158.005 91.489 158.005H99.0653L92.6022 105.394Z" fill="#24285B"/>
<path d="M72.3158 68.0353C70.4627 57.6272 84.8032 52.7903 89.59 62.2152C95.3 73.4687 105.306 88.5565 116.575 84.6371C130.156 79.9049 133.967 72.6036 134.995 69.5624C135.409 68.3322 136.205 67.2666 137.267 66.5213C138.852 65.4071 141.111 64.4633 142.794 66.3181C145.682 69.5034 139.625 72.8264 139.625 72.8264C139.625 72.8264 130.457 99.6003 108.619 99.0432C93.8725 98.6499 74.8238 82.0023 72.3158 68.0353Z" fill="#F4A28C"/>
<path opacity="0.09" d="M72.3158 68.0353C70.4627 57.6272 84.8032 52.7902 89.59 62.2152C95.3 73.4687 105.306 88.5565 116.575 84.6371C130.66 79.728 134.255 72.0596 135.093 69.2609C135.365 68.3857 135.891 67.6119 136.606 67.0391C138.164 65.7741 140.856 64.2011 142.794 66.3378C145.682 69.5231 139.625 72.8461 139.625 72.8461C139.625 72.8461 130.457 99.62 108.619 99.0629C93.8725 98.6499 74.8238 82.0023 72.3158 68.0353Z" fill="black"/>
<path d="M75.6686 50.9485C75.6686 50.9485 60.4768 48.5103 53.6078 62.0251C46.7387 75.5398 58.3487 105.394 58.3487 105.394H92.6022C92.6022 105.394 121.414 55.0383 75.6686 50.9485Z" fill="#2388D2"/>
<path d="M83.5524 52.3052L82.6292 130.877H99.0847C99.0847 130.877 104.382 80.829 100.617 67.6813C96.8518 54.5336 88.9416 54.4681 83.5524 52.3052Z" fill="#2388D2"/>
<path d="M75.6687 50.9485L76.5003 131.722L57.0653 132.502C57.0653 132.502 49.5873 88.0322 51.6172 77.1457C53.6472 66.2591 49.679 63.4474 53.9484 58.7087C56.5988 55.6578 59.9893 53.3413 63.7934 51.9821C67.5976 50.623 71.6873 50.2671 75.6687 50.9485Z" fill="#2388D2"/>
<path opacity="0.44" d="M76.5003 131.722L73.2721 131.854L57.0653 132.509C57.0653 132.509 49.5873 88.0388 51.6172 77.1522C52.0636 74.8288 52.2698 72.4656 52.2327 70.0999C52.1345 64.6665 50.7921 62.2349 53.9484 58.7153C56.5988 55.6644 59.9893 53.3479 63.7934 51.9887C67.5976 50.6296 71.6873 50.2736 75.6687 50.9551L76.5003 131.722Z" fill="white"/>
<path opacity="0.08" d="M74.621 125.234C74.389 125.738 74.106 126.216 73.7763 126.663C72.8006 128.288 72.9708 130.084 73.2721 131.853L57.0653 132.509C57.0653 132.509 49.5873 88.0387 51.6172 77.1522C52.0636 74.8288 52.2698 72.4656 52.2327 70.0999C54.5005 68.6525 57.1325 67.8797 59.8221 67.8715C60.0709 67.8715 60.3198 67.8715 60.562 67.9108C66.1149 68.3696 65.4601 74.6747 64.4386 78.9022C63.3057 83.6081 60.3394 87.5472 59.1542 92.1875C57.8445 97.2998 56.3516 107.072 61.5115 110.297C63.07 111.267 64.8315 111.903 66.3506 112.918C67.7654 113.962 69.0494 115.172 70.1748 116.523C72.0476 118.607 73.9924 120.823 74.6079 123.556C74.7577 124.105 74.7622 124.683 74.621 125.234Z" fill="black"/>
<path opacity="0.44" d="M83.5524 52.3052L82.6292 130.877H99.0847C99.0847 130.877 104.382 80.829 100.617 67.6813C96.8518 54.5336 88.9416 54.4681 83.5524 52.3052Z" fill="white"/>
<path d="M59.7631 55.0056C54.6555 57.9484 45.822 63.8341 40.7209 71.7646L56.7444 86.7672C56.7444 86.7672 84.7379 67.3143 68.2233 55.425C67.0024 54.549 65.5552 54.0436 64.0549 53.9692C62.5545 53.8948 61.0645 54.2546 59.7631 55.0056Z" fill="#2388D2"/>
<path opacity="0.44" d="M59.4421 55.1825C54.2887 58.1843 45.6909 63.9914 40.7078 71.7646L56.7312 86.7672C56.7312 86.7672 84.3973 67.5372 68.5179 55.6282C67.2148 54.6729 65.6602 54.1214 64.0468 54.0422C62.4335 53.9629 60.8324 54.3594 59.4421 55.1825Z" fill="white"/>
<path d="M63.3499 111.254L46.0559 126.704L56.9829 138.958L74.2769 123.508L63.3499 111.254Z" fill="#FFD200"/>
<path d="M41.8995 72.8854C41.8995 72.8854 25.457 91.6828 30.3681 99.7051C35.2793 107.727 53.3261 116.091 53.3261 116.091C53.3261 116.091 54.5309 122.691 58.414 122.186C59.9332 121.989 60.2803 120.416 60.1427 118.575C60.0014 116.931 59.5281 115.332 58.7514 113.877C57.9748 112.421 56.911 111.139 55.6245 110.107C50.0913 105.604 40.0267 94.9009 56.7311 86.7409L41.8995 72.8854Z" fill="#F4A28C"/>
<path d="M71.9753 63.9193C71.0192 58.1975 71.0454 50.2014 77.5609 49.3952C84.6984 48.517 90.8799 62.1628 87.1933 71.8827" stroke="#24285B" stroke-width="2.03" stroke-linecap="round" stroke-linejoin="round"/>
<path d="M82.4068 37.6895L75.6687 50.942L82.4919 58.499L85.0981 43.2081L82.4068 37.6895Z" fill="#F4A28C"/>
<path opacity="0.31" d="M84.7968 45.62C83.9031 45.061 83.1928 44.252 82.7537 43.2932C82.7537 43.2932 82.0335 45.9149 84.0634 49.3952L84.7968 45.62Z" fill="#CE8172"/>
<path d="M89.0661 38.5742C89.0661 38.5742 88.6601 43.0966 87.3832 45.928C87.2602 46.2024 87.0841 46.4496 86.8651 46.6553C86.646 46.8611 86.3883 47.0214 86.107 47.1268C85.8256 47.2323 85.5262 47.2808 85.226 47.2697C84.9258 47.2585 84.6307 47.1879 84.358 47.0619C82.9501 46.4065 81.228 45.0956 81.1494 42.6444L80.4946 38.5021C80.4536 37.6597 80.6747 36.8253 81.1274 36.114C81.5801 35.4026 82.2421 34.8493 83.0221 34.5303C85.8772 33.1605 89.4525 35.8346 89.0661 38.5742Z" fill="#F4A28C"/>
<path d="M88.6667 41.4122L89.6031 43.3785C89.6562 43.4893 89.6803 43.6119 89.6733 43.7346C89.6663 43.8574 89.6283 43.9763 89.5629 44.0804C89.4976 44.1845 89.4069 44.2703 89.2994 44.3298C89.1919 44.3893 89.0711 44.4205 88.9482 44.4206H87.1868L88.6667 41.4122Z" fill="#F4A28C"/>
<path d="M79.3093 43.0376L79.5254 36.8701C79.5254 36.8701 76.3954 35.3168 78.0325 33.4619C79.6695 31.6071 80.5601 33.4619 81.3524 30.9714C82.1447 28.4808 84.2991 28.6184 85.2813 30.4339C86.2635 32.2494 86.2111 30.1062 88.0643 30.3749C89.9174 30.6436 90.1466 31.5809 89.7865 32.9442C89.4263 34.3074 92.4057 33.5996 92.5629 35.5658C92.72 37.5321 92.3075 39.151 87.8089 38.1023C83.3103 37.0536 85.4057 41.6154 79.3093 43.0376Z" fill="#FFD200"/>
<path d="M83.6377 41.5563C83.6377 41.5563 83.9127 39.8326 82.5966 39.7343C81.2804 39.636 80.8744 42.1266 82.5966 42.6705L83.6377 41.5563Z" fill="#F4A28C"/>
<path d="M86.9839 75.5595C88.4594 75.5595 89.6556 74.3623 89.6556 72.8854C89.6556 71.4085 88.4594 70.2113 86.9839 70.2113C85.5084 70.2113 84.3123 71.4085 84.3123 72.8854C84.3123 74.3623 85.5084 75.5595 86.9839 75.5595Z" fill="#24285B"/>
<path d="M75.0725 78.522C75.0725 78.522 78.1895 78.522 78.5103 75.9003C78.8901 72.7739 75.3868 63.5719 72.689 63.7816C68.341 64.1224 66.6777 72.42 68.2166 76.89C68.7339 78.404 71.1502 78.2664 72.3092 78.3188" stroke="#24285B" stroke-width="2.03" stroke-linecap="round" stroke-linejoin="round"/>
<path d="M66.96 113.402L64.4111 115.671L69.0815 120.926L71.6303 118.656L66.96 113.402Z" fill="#24285B"/>
<path d="M216.35 117.808H187.047C183.231 117.808 180.138 120.904 180.138 124.723V124.729C180.138 128.548 183.231 131.644 187.047 131.644H216.35C220.165 131.644 223.258 128.548 223.258 124.729V124.723C223.258 120.904 220.165 117.808 216.35 117.808Z" fill="#FFD200"/>
<path d="M220.986 130.195H181.789V159.84H220.986V130.195Z" fill="#FFD200"/>
<path d="M201.427 48.0451C201.421 49.723 201.642 51.394 202.081 53.0131C202.145 53.2024 202.245 53.3772 202.376 53.5273C202.508 53.6775 202.668 53.8 202.847 53.8878C203.026 53.9756 203.221 54.0269 203.42 54.0388C203.619 54.0506 203.818 54.0228 204.007 53.9569C204.627 53.7859 205.184 53.4396 205.613 52.9596C206.041 52.4795 206.323 51.886 206.423 51.2501L207.097 48.5563C207.183 47.9987 207.092 47.4284 206.837 46.9253C206.582 46.4221 206.176 46.0115 205.676 45.7511C203.889 44.6762 201.355 46.2033 201.427 48.0451Z" fill="#F4A28C"/>
<path d="M207.523 50.1489L208.381 59.9933L202.926 60.072L204.458 53.059L207.523 50.1489Z" fill="#F4A28C"/>
<path d="M201.505 49.9458L200.752 51.1649C200.71 51.2345 200.686 51.3137 200.682 51.3951C200.678 51.4765 200.695 51.5576 200.731 51.6307C200.767 51.7039 200.821 51.7668 200.887 51.8137C200.954 51.8606 201.031 51.8899 201.112 51.8989L202.278 52.0235L201.505 49.9458Z" fill="#F4A28C"/>
<path opacity="0.31" d="M204.413 53.2622C205.068 53.1346 205.677 52.831 206.174 52.3839C206.174 52.3839 206.56 54.514 203.974 55.2678L204.413 53.2622Z" fill="#CE8172"/>
<path d="M172.333 125.738V155.901L175.227 156.91L182.378 126.354L172.333 125.738Z" fill="#F4A28C"/>
<path d="M172.438 155.206C172.438 155.206 170.545 157.225 168.371 156.93C166.197 156.635 165.614 159.689 169.15 159.676C170.248 159.678 171.343 159.586 172.424 159.401C173.421 159.261 174.437 159.385 175.371 159.761C175.554 159.822 175.752 159.825 175.937 159.77C176.122 159.715 176.286 159.604 176.406 159.453C177.506 158.365 175.293 155.455 175.293 155.455L172.438 155.206Z" fill="#2388D2"/>
<path d="M207.32 50.1751C207.32 50.1751 207.254 49.015 208.132 49.0412C209.009 49.0674 209.108 50.7387 207.942 51.0075L207.32 50.1751Z" fill="#F4A28C"/>
<path d="M202.042 47.8549C203 48.0178 203.978 48.0178 204.936 47.8549C204.936 47.8549 205.552 51.2041 208.21 52.0431C208.21 52.0431 210.725 47.0488 207.641 45.1087C205.054 43.4898 203.136 42.0479 201.007 43.9749C200.701 44.2539 200.478 44.6119 200.361 45.0096C200.244 45.4072 200.239 45.8294 200.346 46.2299C200.452 46.6303 200.667 46.9937 200.966 47.2803C201.266 47.5669 201.638 47.7657 202.042 47.8549Z" fill="#24285B"/>
<path d="M209.35 46.6752C211.002 46.6752 212.342 45.3342 212.342 43.68C212.342 42.0257 211.002 40.6847 209.35 40.6847C207.697 40.6847 206.357 42.0257 206.357 43.68C206.357 45.3342 207.697 46.6752 209.35 46.6752Z" fill="#24285B"/>
<path d="M204.884 49.6115C204.884 49.6115 205.015 48.3006 206.082 48.4776C207.149 48.6546 207.136 50.2538 205.794 50.8764L204.884 49.6115Z" fill="#F4A28C"/>
<path d="M202.546 61.6384L207.87 60.1047C207.87 60.1047 222.099 61.6384 221.949 73.0624C221.837 81.5238 211.963 113.154 211.963 113.154H190.321V102.012C190.369 96.739 189.133 91.5335 186.719 86.8458C183.373 80.4883 181.618 69.4445 202.546 61.6384Z" fill="#2388D2"/>
<path d="M190.321 107.944L211.962 113.187C211.962 113.187 213.017 122.533 205.486 123.268C197.956 124.002 174.874 121.432 183.845 149.851H165.981C165.981 149.851 155.124 119.315 181.651 113.187C184.866 112.44 190.255 111.83 190.308 108.527L190.321 107.944Z" fill="#24285B"/>
<path opacity="0.08" d="M201.04 69.6018C201.04 69.6018 190.484 73.4295 194.106 86.2626C197.727 99.0957 190.308 101.049 190.308 101.049L199.894 110.408L211.982 113.154L215.78 100.387L201.04 69.6018Z" fill="black"/>
<path d="M199.894 62.7067C199.725 61.9181 199.834 61.0953 200.203 60.3782C200.572 59.6612 201.178 59.0943 201.917 58.7742C204.628 57.4634 211.039 55.7986 211.982 61.0747C211.962 61.0616 206.01 64.9351 199.894 62.7067Z" fill="#2388D2"/>
<path opacity="0.46" d="M199.894 62.7067C199.725 61.9181 199.834 61.0953 200.203 60.3782C200.572 59.6612 201.178 59.0943 201.917 58.7742C204.628 57.4634 211.039 55.7986 211.982 61.0747C211.962 61.0616 206.01 64.9351 199.894 62.7067Z" fill="white"/>
<path d="M198.519 75.245C199.39 65.2105 213.58 63.9652 216.31 73.6589C217.758 78.7777 218.504 86.197 216.828 96.5985C212.788 121.721 179.411 114.138 179.411 114.138L178.796 110.572C178.796 110.572 193.038 104.837 199.894 97.5292C203.908 93.1838 197.818 83.3263 198.519 75.245Z" fill="#F4A28C"/>
<path d="M180.472 110.218C180.472 110.218 174.782 109.976 173.407 112.591C172.032 115.206 170.787 118.129 173.446 118.247C176.105 118.365 176.334 115.193 177.192 114.681C178.049 114.17 181.651 114.144 181.651 112.256C181.651 110.369 180.472 110.218 180.472 110.218Z" fill="#F4A28C"/>
<path d="M182.587 28.6118H145.499V75.4612H182.587V28.6118Z" fill="#C9C9C9"/>
<path d="M180.531 31.2073H147.554V72.8657H180.531V31.2073Z" fill="#E6E6E6"/>
<path opacity="0.08" d="M160.906 38.6528L159.328 39.7212C159.328 39.7212 162.452 40.7633 162.15 46.413C161.849 52.0627 161.456 54.704 156.067 56.4606C151.051 58.086 150.396 59.3313 150.992 64.8303L152.675 63.9979C152.675 63.9979 151.162 59.4886 154.43 58.8922C154.43 58.8922 154.869 61.9399 159.8 64.3649C163.67 66.2722 168.279 64.8303 172.523 58.8266C176.766 52.823 175.214 46.2622 172.097 44.9252C168.98 43.5881 163.951 44.0863 163.951 44.0863C163.951 44.0863 163.879 41.4777 160.906 38.6528Z" fill="black"/>
<path opacity="0.08" d="M176.367 34.5435H167.271V35.5266H176.367V34.5435Z" fill="black"/>
<path opacity="0.08" d="M176.367 36.6014H167.271V37.5846H176.367V36.6014Z" fill="black"/>
<path opacity="0.08" d="M176.367 38.6528H167.271V39.636H176.367V38.6528Z" fill="black"/>
<path opacity="0.58" d="M147.116 96.4281C147.116 96.4281 141.674 94.9337 140.489 89.8739C140.489 89.8739 148.923 88.1698 149.165 96.8869L147.116 96.4281Z" fill="#2388D2"/>
<path opacity="0.73" d="M147.784 95.8841C147.784 95.8841 143.979 89.8608 147.332 84.2307C147.332 84.2307 153.749 88.314 150.894 95.8972L147.784 95.8841Z" fill="#2388D2"/>
<path d="M148.766 95.8906C148.766 95.8906 150.783 89.5265 156.853 88.3533C156.853 88.3533 157.993 92.4824 152.924 95.9299L148.766 95.8906Z" fill="#2388D2"/>
<path d="M144.817 95.7465L145.917 103.303L152.872 103.336L153.9 95.7858L144.817 95.7465Z" fill="#24285B"/>
</svg>
