<svg width="216" height="198" viewBox="0 0 216 198" fill="none" xmlns="http://www.w3.org/2000/svg">
<g clip-path="url(#clip0_135_1686)">
<path opacity="0.45" d="M97.7197 180.307C153.145 180.307 198.077 175.97 198.077 170.621C198.077 165.271 153.145 160.935 97.7197 160.935C42.2941 160.935 -2.63721 165.271 -2.63721 170.621C-2.63721 175.97 42.2941 180.307 97.7197 180.307Z" fill="#E6E6E6"/>
<path d="M162.116 43.3207V166.773H35.0879V8.34741H124.406" fill="#94C0EA"/>
<path d="M124.406 8.34741V43.3207H162.116L124.406 8.34741Z" fill="#24285B"/>
<path d="M102.975 42.4268H91.2676V74.3839H102.975V42.4268Z" fill="#2388D2"/>
<path d="M113.096 64.255V52.548H81.1388V64.255H113.096Z" fill="#2388D2"/>
<path opacity="0.13" d="M73.1941 18.7096H45.2092V34.3889H73.1941V18.7096Z" fill="black"/>
<path opacity="0.33" d="M145.442 84.9949H52.5552V134.481H145.442V84.9949Z" fill="white"/>
<path d="M162.38 148.878H187.45C188.741 148.878 189.979 149.391 190.891 150.303C191.804 151.216 192.316 152.454 192.316 153.744V166.687H162.388V148.878H162.38Z" fill="#FFD200"/>
<path d="M168.319 102.268H125.596V166.703H168.319V102.268Z" fill="#2388D2"/>
<path d="M169.26 96.0801H124.655C122.019 96.0801 119.882 98.217 119.882 100.853V107.624C119.882 110.26 122.019 112.397 124.655 112.397H169.26C171.896 112.397 174.033 110.26 174.033 107.624V100.853C174.033 98.217 171.896 96.0801 169.26 96.0801Z" fill="#2388D2"/>
<path opacity="0.13" d="M169.26 96.0801H124.655C122.019 96.0801 119.882 98.217 119.882 100.853V107.624C119.882 110.26 122.019 112.397 124.655 112.397H169.26C171.896 112.397 174.033 110.26 174.033 107.624V100.853C174.033 98.217 171.896 96.0801 169.26 96.0801Z" fill="black"/>
<path opacity="0.46" d="M168.319 126.032H125.596V153.449H168.319V126.032Z" fill="white"/>
<path opacity="0.08" d="M136.727 146.841C136.727 146.841 152.057 148.762 137.785 166.687H125.596L129.032 148.87L136.727 146.841Z" fill="black"/>
<path d="M133.055 142.617L134.386 143.422C135.534 144.117 136.359 145.239 136.68 146.542C137.001 147.846 136.791 149.223 136.096 150.371L131.622 157.768L121.645 151.732L126.119 144.336C126.813 143.19 127.932 142.366 129.232 142.043C130.532 141.721 131.907 141.928 133.055 142.617Z" fill="#24285B"/>
<path d="M121.626 151.725L131.603 157.761L127.129 165.157C126.435 166.305 125.312 167.131 124.009 167.451C122.706 167.772 121.328 167.562 120.18 166.868L118.85 166.063C117.701 165.368 116.876 164.246 116.555 162.943C116.234 161.639 116.444 160.262 117.139 159.114L121.613 151.717L121.626 151.725Z" fill="#2388D2"/>
<path d="M119.598 142.618L120.929 143.422C122.077 144.117 122.903 145.24 123.223 146.543C123.544 147.846 123.334 149.223 122.64 150.372L118.165 157.768L108.188 151.733L112.662 144.337C113.356 143.191 114.475 142.366 115.775 142.044C117.075 141.722 118.45 141.928 119.598 142.618Z" fill="#24285B"/>
<path d="M108.176 151.73L118.153 157.765L113.679 165.161C112.984 166.31 111.862 167.135 110.559 167.456C109.256 167.777 107.878 167.567 106.73 166.872L105.4 166.067C104.251 165.373 103.426 164.25 103.105 162.947C102.784 161.644 102.994 160.267 103.689 159.118L108.163 151.722L108.176 151.73Z" fill="#2388D2"/>
<path d="M84.3102 143.615H52.5552V153.449H84.3102V143.615Z" fill="white"/>
</g>
<defs>
<clipPath id="clip0_135_1686">
<rect width="216" height="198" fill="white"/>
</clipPath>
</defs>
</svg>
